<svg width="116" height="19" viewBox="0 0 116 19" fill="none" xmlns="http://www.w3.org/2000/svg">
<path d="M-0.000156164 14.2402V0.240233H3.23984V14.2402H-0.000156164ZM12.8823 3.32023C13.7357 3.32023 14.4957 3.49357 15.1623 3.84023C15.8423 4.17357 16.3757 4.69357 16.7623 5.40023C17.149 6.09357 17.3423 6.9869 17.3423 8.08023V14.2402H14.2223V8.56023C14.2223 7.69357 14.029 7.05357 13.6423 6.64023C13.269 6.2269 12.7357 6.02023 12.0423 6.02023C11.549 6.02023 11.1023 6.1269 10.7023 6.34023C10.3157 6.54023 10.009 6.85357 9.78234 7.28023C9.56901 7.7069 9.46234 8.25357 9.46234 8.92023V14.2402H6.34234V3.48023H9.32234V6.46023L8.76234 5.56023C9.14901 4.84023 9.70234 4.2869 10.4223 3.90023C11.1423 3.51357 11.9623 3.32023 12.8823 3.32023ZM24.5705 14.4002C23.3038 14.4002 22.3171 14.0802 21.6105 13.4402C20.9038 12.7869 20.5505 11.8202 20.5505 10.5402V1.10023H23.6705V10.5002C23.6705 10.9536 23.7905 11.3069 24.0305 11.5602C24.2705 11.8002 24.5971 11.9202 25.0105 11.9202C25.5038 11.9202 25.9238 11.7869 26.2705 11.5202L27.1105 13.7202C26.7905 13.9469 26.4038 14.1202 25.9505 14.2402C25.5105 14.3469 25.0505 14.4002 24.5705 14.4002ZM18.8905 6.12023V3.72023H26.3505V6.12023H18.8905ZM33.8698 14.4002C32.6432 14.4002 31.5632 14.1602 30.6298 13.6802C29.7098 13.2002 28.9965 12.5469 28.4898 11.7202C27.9832 10.8802 27.7298 9.9269 27.7298 8.86023C27.7298 7.78023 27.9765 6.8269 28.4698 6.00023C28.9765 5.16023 29.6632 4.5069 30.5298 4.04023C31.3965 3.56023 32.3765 3.32023 33.4698 3.32023C34.5232 3.32023 35.4698 3.5469 36.3098 4.00023C37.1632 4.44023 37.8365 5.08023 38.3298 5.92023C38.8232 6.7469 39.0698 7.74023 39.0698 8.90023C39.0698 9.02023 39.0632 9.16023 39.0498 9.32023C39.0365 9.4669 39.0232 9.6069 39.0098 9.74023H30.2698V7.92023H37.3698L36.1698 8.46023C36.1698 7.90023 36.0565 7.41357 35.8298 7.00023C35.6032 6.5869 35.2898 6.2669 34.8898 6.04023C34.4898 5.80023 34.0232 5.68023 33.4898 5.68023C32.9565 5.68023 32.4832 5.80023 32.0698 6.04023C31.6698 6.2669 31.3565 6.59357 31.1298 7.02023C30.9032 7.43357 30.7898 7.9269 30.7898 8.50023V8.98023C30.7898 9.5669 30.9165 10.0869 31.1698 10.5402C31.4365 10.9802 31.8032 11.3202 32.2698 11.5602C32.7498 11.7869 33.3098 11.9002 33.9498 11.9002C34.5232 11.9002 35.0232 11.8136 35.4498 11.6402C35.8898 11.4669 36.2898 11.2069 36.6498 10.8602L38.3098 12.6602C37.8165 13.2202 37.1965 13.6536 36.4498 13.9602C35.7032 14.2536 34.8432 14.4002 33.8698 14.4002ZM46.207 18.2802C45.1937 18.2802 44.2137 18.1536 43.267 17.9002C42.3337 17.6602 41.5537 17.2936 40.927 16.8002L42.167 14.5602C42.6204 14.9336 43.1937 15.2269 43.887 15.4402C44.5937 15.6669 45.287 15.7802 45.967 15.7802C47.0737 15.7802 47.8737 15.5336 48.367 15.0402C48.8737 14.5469 49.127 13.8136 49.127 12.8402V11.2202L49.327 8.52023L49.287 5.80023V3.48023H52.247V12.4402C52.247 14.4402 51.727 15.9136 50.687 16.8602C49.647 17.8069 48.1537 18.2802 46.207 18.2802ZM45.727 13.7202C44.727 13.7202 43.8204 13.5069 43.007 13.0802C42.207 12.6402 41.5604 12.0336 41.067 11.2602C40.587 10.4736 40.347 9.56023 40.347 8.52023C40.347 7.4669 40.587 6.55357 41.067 5.78023C41.5604 4.99357 42.207 4.3869 43.007 3.96023C43.8204 3.53357 44.727 3.32023 45.727 3.32023C46.6337 3.32023 47.4337 3.5069 48.127 3.88023C48.8204 4.24023 49.3604 4.8069 49.747 5.58023C50.1337 6.34023 50.327 7.32023 50.327 8.52023C50.327 9.7069 50.1337 10.6869 49.747 11.4602C49.3604 12.2202 48.8204 12.7869 48.127 13.1602C47.4337 13.5336 46.6337 13.7202 45.727 13.7202ZM46.347 11.1602C46.8937 11.1602 47.3804 11.0536 47.807 10.8402C48.2337 10.6136 48.567 10.3002 48.807 9.90023C49.047 9.50023 49.167 9.04023 49.167 8.52023C49.167 7.9869 49.047 7.5269 48.807 7.14023C48.567 6.74023 48.2337 6.43357 47.807 6.22023C47.3804 5.99357 46.8937 5.88023 46.347 5.88023C45.8004 5.88023 45.3137 5.99357 44.887 6.22023C44.4604 6.43357 44.1204 6.74023 43.867 7.14023C43.627 7.5269 43.507 7.9869 43.507 8.52023C43.507 9.04023 43.627 9.50023 43.867 9.90023C44.1204 10.3002 44.4604 10.6136 44.887 10.8402C45.3137 11.0536 45.8004 11.1602 46.347 11.1602ZM55.1509 14.2402V3.48023H58.1309V6.52023L57.7109 5.64023C58.0309 4.88023 58.5443 4.3069 59.2509 3.92023C59.9576 3.52023 60.8176 3.32023 61.8309 3.32023V6.20023C61.6976 6.1869 61.5776 6.18023 61.4709 6.18023C61.3643 6.1669 61.2509 6.16023 61.1309 6.16023C60.2776 6.16023 59.5843 6.4069 59.0509 6.90023C58.5309 7.38023 58.2709 8.13357 58.2709 9.16023V14.2402H55.1509ZM69.583 14.2402V12.1402L69.383 11.6802V7.92023C69.383 7.25357 69.1763 6.73357 68.763 6.36023C68.363 5.9869 67.743 5.80023 66.903 5.80023C66.3296 5.80023 65.763 5.89357 65.203 6.08023C64.6563 6.25357 64.1896 6.49357 63.803 6.80023L62.683 4.62023C63.2696 4.2069 63.9763 3.8869 64.803 3.66023C65.6296 3.43357 66.4696 3.32023 67.323 3.32023C68.963 3.32023 70.2363 3.7069 71.143 4.48023C72.0496 5.25357 72.503 6.46023 72.503 8.10023V14.2402H69.583ZM66.303 14.4002C65.463 14.4002 64.743 14.2602 64.143 13.9802C63.543 13.6869 63.083 13.2936 62.763 12.8002C62.443 12.3069 62.283 11.7536 62.283 11.1402C62.283 10.5002 62.4363 9.94023 62.743 9.46023C63.063 8.98023 63.563 8.6069 64.243 8.34023C64.923 8.06023 65.8096 7.92023 66.903 7.92023H69.763V9.74023H67.243C66.5096 9.74023 66.003 9.86023 65.723 10.1002C65.4563 10.3402 65.323 10.6402 65.323 11.0002C65.323 11.4002 65.4763 11.7202 65.783 11.9602C66.103 12.1869 66.5363 12.3002 67.083 12.3002C67.603 12.3002 68.0696 12.1802 68.483 11.9402C68.8963 11.6869 69.1963 11.3202 69.383 10.8402L69.863 12.2802C69.6363 12.9736 69.223 13.5002 68.623 13.8602C68.023 14.2202 67.2496 14.4002 66.303 14.4002Z" fill="white"/>
<path d="M82.2467 14.4802C81.1667 14.4802 80.1601 14.3069 79.2267 13.9602C78.3067 13.6002 77.5067 13.0936 76.8267 12.4402C76.1467 11.7869 75.6134 11.0202 75.2267 10.1402C74.8534 9.26023 74.6667 8.29357 74.6667 7.24023C74.6667 6.1869 74.8534 5.22023 75.2267 4.34023C75.6134 3.46023 76.1467 2.69357 76.8267 2.04023C77.5201 1.3869 78.3267 0.8869 79.2467 0.540233C80.1667 0.180234 81.1734 0.000234127 82.2667 0.000234127C83.4801 0.000234127 84.5734 0.213567 85.5467 0.640234C86.5334 1.05357 87.3601 1.6669 88.0267 2.48023L85.9467 4.40023C85.4667 3.85357 84.9334 3.4469 84.3467 3.18023C83.7601 2.90023 83.1201 2.76023 82.4267 2.76023C81.7734 2.76023 81.1734 2.8669 80.6267 3.08023C80.0801 3.29357 79.6067 3.60023 79.2067 4.00023C78.8067 4.40023 78.4934 4.87357 78.2667 5.42023C78.0534 5.9669 77.9467 6.57357 77.9467 7.24023C77.9467 7.9069 78.0534 8.51357 78.2667 9.06023C78.4934 9.6069 78.8067 10.0802 79.2067 10.4802C79.6067 10.8802 80.0801 11.1869 80.6267 11.4002C81.1734 11.6136 81.7734 11.7202 82.4267 11.7202C83.1201 11.7202 83.7601 11.5869 84.3467 11.3202C84.9334 11.0402 85.4667 10.6202 85.9467 10.0602L88.0267 11.9802C87.3601 12.7936 86.5334 13.4136 85.5467 13.8402C84.5734 14.2669 83.4734 14.4802 82.2467 14.4802ZM88.1208 14.2402L94.3608 0.240233H97.5608L103.821 14.2402H100.421L95.3008 1.88023H96.5808L91.4408 14.2402H88.1208ZM91.2408 11.2402L92.1008 8.78023H99.3008L100.181 11.2402H91.2408ZM107.47 14.2402V2.88023H102.99V0.240233H115.19V2.88023H110.71V14.2402H107.47Z" fill="url(#paint0_linear_301_278)"/>
<defs>
<linearGradient id="paint0_linear_301_278" x1="56.8398" y1="-4.75977" x2="56.8398" y2="19.2402" gradientUnits="userSpaceOnUse">
<stop stop-color="#7ED957"/>
<stop offset="1" stop-color="#0097B2"/>
</linearGradient>
</defs>
</svg>
