<svg width="168" height="168" viewBox="0 0 168 168" fill="none" xmlns="http://www.w3.org/2000/svg">
<path d="M48.0521 30.3544C48.8405 30.4751 49.5802 30.5635 50.3053 30.719C51.7085 31.0196 53.1239 31.2894 54.4972 31.6969C57.4511 32.5727 60.3005 33.7305 63.0211 35.1807C64.234 35.8272 65.4436 36.4948 66.5803 37.2637C67.196 37.6809 67.7105 37.7936 68.4323 37.6048C70.6271 37.0296 72.8584 36.5953 75.0483 36.0039C77.8888 35.2366 80.7026 34.3438 83.2644 32.8652C84.6911 32.0412 86.0668 31.0958 87.3445 30.0555C88.7315 28.9261 89.9525 27.5949 91.2917 26.4023C93.4533 24.4765 95.6408 22.5758 98.3338 21.3905C99.5289 20.8647 100.752 20.4953 102.064 20.3211C103.733 20.0991 105.297 20.3251 106.833 20.9474C108.079 21.4513 109.102 22.2688 109.993 23.2475C111.174 24.5454 111.977 26.0839 112.529 27.7302C113.087 29.3944 113.475 31.1071 113.555 32.8773C113.61 34.0845 113.705 35.2893 113.793 36.4948C113.992 39.2389 114.051 42.0114 114.782 44.6793C115.256 46.4066 115.915 48.0886 116.575 49.7576C117.712 52.6329 118.895 55.4953 119.645 58.4978C119.996 59.8954 120.117 61.3529 120.291 62.7902C120.388 63.5972 120.407 64.4163 120.416 65.2305C120.448 67.7226 120.024 70.1548 119.391 72.5538C118.985 74.0874 118.57 75.6073 118.598 77.2245C118.627 78.8983 119.302 80.2902 120.319 81.5298C122.208 83.8323 124.295 85.9923 125.766 88.5979C126.835 90.4945 127.806 92.473 128.58 94.5057C129.312 96.4324 129.792 98.4635 130.267 100.475C130.525 101.558 130.576 102.694 130.66 103.811C130.742 104.923 130.765 106.04 130.784 107.157C130.8 108.081 129.951 108.703 129.035 108.494C124.765 107.523 122.121 104.738 120.409 100.862C119.551 98.9156 119.272 96.8739 119.496 94.8071C119.634 93.5157 120.095 92.2494 120.493 90.9984C120.897 89.7297 121.35 88.4942 121.277 87.1217C121.207 85.7525 120.144 84.3444 118.797 83.9879C118.056 83.7918 116.995 84.184 116.566 84.8597C115.516 86.5141 114.441 88.1555 113.458 89.8496C111.921 92.4957 110.452 95.1798 108.945 97.8631C109.532 98.3808 110.146 98.8467 110.671 99.3984C112.694 101.53 114.088 104.02 114.739 106.894C114.872 107.487 114.883 108.118 114.865 108.729C114.835 109.825 113.668 110.941 112.551 110.176C112.752 107.484 112.092 105.037 110.514 102.848C109.478 101.41 108.168 100.287 106.573 99.503C104.86 98.6596 103.03 98.3201 101.149 98.4829C98.0697 98.7503 95.3669 100.015 92.8853 101.82C90.9166 103.252 89.25 104.969 88.0485 107.074C87.513 108.012 87.2594 109.115 86.9143 110.154C86.6826 110.85 86.5294 111.571 86.3115 112.273C86.1195 112.891 85.8926 112.959 85.123 112.698C84.5372 112.499 84.4464 112.295 84.6174 111.705C84.8694 110.833 85.1813 109.964 85.2955 109.072C85.3417 108.717 84.9885 108.252 84.713 107.926C83.4483 106.429 81.7105 105.845 79.8632 105.451C77.8216 105.014 75.6713 104.926 73.8071 103.876C72.7271 103.267 71.6966 102.539 70.7462 101.743C69.646 100.821 68.6786 99.742 67.6149 98.7738C66.1614 97.4508 64.5702 96.2687 62.5869 95.9803C60.9033 95.7356 59.1784 95.7243 57.4714 95.7056C54.7564 95.6773 52.2465 94.9983 50.0776 93.3642C47.912 91.7317 46.4415 89.5644 45.7099 86.9354C45.6062 86.5619 45.6467 86.1333 45.6888 85.7379C45.7342 85.3117 46.4164 85.1205 46.7194 85.4819C47.1407 85.9858 47.5717 86.5222 47.8277 87.1185C49.3298 90.6095 51.8373 93.0158 55.5545 93.8422C58.5675 94.5122 61.3367 93.7336 63.5024 91.41C64.7063 90.1186 65.4274 88.5582 65.6923 86.7952C66.2003 83.4151 65.0458 80.5438 63.043 77.9107C61.2606 75.5668 58.9491 73.8889 56.4051 72.4776C54.852 71.6156 53.2203 70.952 51.4833 70.6417C48.966 70.1913 46.6238 70.6685 44.5619 72.271C42.6466 73.7593 41.5342 75.7759 40.8763 78.0403C40.4437 79.527 40.1869 81.068 39.896 82.5928C39.4496 84.9277 39.5646 87.3008 39.691 89.6422C39.8247 92.1019 40.2638 94.5479 40.6163 96.993C41.0238 99.8214 41.791 102.561 42.777 105.242C42.7811 105.253 42.7568 105.275 42.7479 105.288C41.7732 105.031 41.0846 104.457 40.8642 103.453C40.6633 102.54 40.562 101.606 40.3675 100.691C39.9868 98.9067 39.5168 97.1388 39.1879 95.3459C38.9052 93.8049 38.688 92.2429 38.5835 90.6808C38.4304 88.3945 38.3145 86.0984 38.3559 83.8105C38.3818 82.3716 38.6743 80.9303 38.9392 79.5068C39.2795 77.6749 39.8944 75.916 40.7435 74.2584C41.6646 72.4606 42.76 70.7762 44.22 69.3454C44.9256 68.6535 45.5778 67.9009 46.1984 67.1304C47.2063 65.8803 47.2087 64.4673 46.7008 63.0252C45.8922 60.7299 44.9508 58.476 44.2621 56.1459C43.494 53.5468 42.8767 50.8975 42.3233 48.2425C41.9247 46.3305 41.7133 44.3771 41.4678 42.4359C41.3317 41.3576 41.3325 40.263 41.2085 39.1822C41.006 37.4168 41.2401 35.7122 41.7975 34.0392C42.4254 32.1563 43.7436 31.0253 45.6532 30.608C46.4164 30.4411 47.2136 30.433 48.0521 30.3544ZM71.9331 39.277C71.5548 39.4755 71.1732 39.6667 70.7997 39.8733C69.8607 40.3918 69.7408 40.916 70.3217 41.8007C71.7144 43.9194 72.6056 46.2009 72.4347 48.7862C72.305 50.7379 72.1924 52.6945 71.938 54.6316C71.7233 56.2658 71.426 57.908 70.9585 59.4855C70.5615 60.8255 69.9271 62.1064 69.2928 63.3606C68.5498 64.8286 67.7907 66.3064 66.8606 67.657C65.6088 69.4751 64.1926 71.1813 62.8307 72.9232C62.5966 73.2222 62.4994 73.4685 62.7635 73.7869C63.3031 74.4358 63.8119 75.1123 64.3733 75.7418C65.3982 76.8915 66.2068 78.1781 66.6394 79.6461C67.2632 81.7615 67.8466 83.8947 68.3043 86.0506C68.485 86.9029 68.3748 87.8501 68.2379 88.7291C67.9722 90.4394 66.8816 91.6911 65.6907 92.8538C65.1819 93.3496 65.1681 93.6405 65.8057 93.9953C66.9213 94.6159 68.0459 95.2292 69.2085 95.7534C70.8621 96.5012 72.5343 97.215 74.2333 97.8526C76.2846 98.6223 78.3749 99.2858 80.5632 99.5645C81.8482 99.7282 83.1307 99.9469 84.4213 100.009C85.319 100.053 86.2272 99.8635 87.1322 99.7946C89.5036 99.614 91.7584 98.9245 93.9167 98.0017C97.1323 96.6276 100.299 95.132 103.457 93.6299C105.596 92.6131 107.547 91.2755 109.321 89.7159C111.593 87.7196 113.393 85.3466 114.478 82.5004C115.188 80.6435 115.862 78.7679 116.425 76.8631C117.074 74.6643 117.387 72.395 117.537 70.1021C117.657 68.263 117.908 66.4344 117.658 64.5832C117.381 62.5399 117.209 60.482 116.914 58.4411C116.625 56.4375 115.982 54.5271 115.119 52.6961C114.021 50.3636 112.575 48.2466 111.015 46.2041C110.484 45.5098 110.275 44.8316 110.602 43.9307C111.347 41.8688 111.635 39.7105 111.615 37.5173C111.614 37.1851 111.55 36.8529 111.499 36.5224C111.26 34.9587 111.137 33.3651 110.751 31.8387C110.009 28.9139 108.764 26.2249 106.387 24.2246C105.104 23.1438 103.604 22.6123 101.957 23.1025C100.73 23.4679 99.528 23.9856 98.3922 24.5819C96.4145 25.6181 94.6159 26.9354 92.9704 28.4497C90.7497 30.4922 88.8603 32.802 87.227 35.3436C86.6477 36.2461 85.8189 36.9469 84.5412 36.763C83.9466 36.6779 83.3114 36.776 82.7078 36.8748C81.1693 37.1268 79.6259 37.3706 78.1084 37.7198C76.0708 38.1881 74.055 38.7512 71.9331 39.277ZM50.4333 38.4296C49.3889 38.1322 48.3341 37.9127 47.2517 38.1938C46.0194 38.5146 45.2643 39.4228 45.3299 40.5846C45.3777 41.4402 45.5268 42.2941 45.6824 43.1392C46.2649 46.2875 47.4858 49.1734 49.2917 51.8171C50.0736 52.9618 51.0409 53.2649 52.2181 52.5495C54.0135 51.459 55.5415 50.0727 56.645 48.2474C58.1349 45.7844 57.2874 43.14 55.5496 41.4159C54.1512 40.0289 52.4215 39.0664 50.4333 38.4296Z" fill="#DCF8FA"/>
<path d="M23.83 115.942C24.5397 115.264 25.2308 114.628 25.8895 113.962C26.233 113.614 26.5206 113.212 26.8795 112.78C30.2653 117.243 34.7569 119.51 40.374 119.737C40.374 119.959 40.374 120.172 40.374 120.385C40.374 122.313 40.395 124.24 40.3683 126.168C40.3318 128.849 39.708 131.406 38.705 133.886C37.8737 135.944 36.7062 137.796 35.3216 139.507C33.8625 141.309 32.1514 142.864 30.2061 144.136C29.1156 144.847 27.9741 145.481 26.9054 146.119C24.8865 145.095 23.07 143.95 21.4181 142.539C19.0936 140.553 17.1678 138.253 15.7589 135.542C14.8264 133.752 14.162 131.848 13.7521 129.869C13.0586 126.524 13.4977 123.14 13.3494 119.742C17.3056 119.655 20.7813 118.439 23.83 115.942ZM23.3341 142.606C24.3866 143.268 25.4293 143.946 26.4995 144.578C26.6867 144.687 27.0367 144.685 27.236 144.585C28.939 143.723 30.5019 142.636 31.91 141.356C34.1939 139.282 36.084 136.908 37.3714 134.066C38.6248 131.295 39.2219 128.399 39.2843 125.38C39.311 124.055 39.2883 122.729 39.2883 121.403C39.2883 121.21 39.2883 121.017 39.2883 120.821C34.2708 120.407 30.147 118.363 26.8609 114.634C23.5553 118.369 19.4388 120.431 14.4545 120.817C14.4545 121.584 14.4651 122.303 14.4521 123.023C14.4019 125.793 14.491 128.542 15.285 131.235C16.1859 134.292 17.6766 137.01 19.8277 139.339C20.8882 140.489 22.1116 141.488 23.3341 142.606Z" fill="#7ED957"/>
<path d="M60.0461 82.2555C59.944 81.9573 59.8452 81.7062 59.7852 81.4461C59.5632 80.4795 59.9983 80.0526 60.9252 80.4163C62.1372 80.8927 62.8931 81.8747 63.3784 83.0413C63.5315 83.4108 63.3978 83.8378 63.0203 84.1246C62.6014 84.443 62.1485 84.4422 61.7977 84.1181C61.1844 83.5501 60.64 82.9085 60.0461 82.2555Z" fill="#DCF8FA"/>
<path d="M58.143 84.7091C58.2305 85.1498 58.2953 85.5566 58.3269 85.9649C58.335 86.0702 58.2662 86.225 58.1819 86.2857C57.6626 86.6617 56.615 86.421 56.4246 85.8247C56.141 84.9376 55.6865 84.2044 54.9865 83.5886C54.5968 83.2451 54.895 82.8206 55.1113 82.5394C55.2239 82.3928 55.6638 82.3466 55.864 82.4438C56.8589 82.9243 57.6447 83.6453 58.143 84.7091Z" fill="#DCF8FA"/>
<path d="M50.3798 84.9017C50.6058 84.286 51.0352 84.4796 51.3382 84.6773C52.3931 85.3635 53.119 86.3115 53.2535 87.5956C53.2883 87.9351 53.1757 88.3588 52.9772 88.6318C52.8322 88.8303 52.4158 88.9543 52.1565 88.9081C51.9394 88.87 51.659 88.5621 51.6072 88.3296C51.4071 87.4311 51.0814 86.6112 50.5386 85.8577C50.3773 85.6333 50.4268 85.2582 50.3798 84.9017Z" fill="#DCF8FA"/>
<path d="M86.6835 78.8174C85.3702 77.8735 85.6934 76.659 86.6195 75.5564C88.1532 73.731 90.1746 72.9524 92.5176 73.0472C93.4096 73.0829 94.309 73.2644 95.0114 73.9384C95.6741 74.5761 95.5169 75.2834 95.1969 75.9842C94.6914 77.0901 94.0392 78.1409 93.6478 79.2832C93.246 80.458 93.212 81.6992 93.8893 82.8545C94.373 83.6801 95.2147 83.9369 96.0346 84.0925C96.921 84.2602 97.8365 84.2156 98.7269 83.894C99.499 83.6153 99.9106 83.0822 100.038 82.3231C100.135 81.7446 100.144 81.1507 100.187 80.5625C100.246 79.7556 101.085 79.3043 102.047 79.5644C102.863 79.7839 103.204 80.39 103.059 81.3905C102.994 81.8345 102.841 82.2728 102.835 82.7144C102.825 83.5805 102.284 84.0423 101.674 84.5097C101.063 84.9772 100.512 85.5176 99.9098 85.9964C99.7234 86.1447 99.4601 86.2735 99.23 86.2768C97.6437 86.3011 96.0573 86.2978 94.471 86.2832C94.104 86.28 93.6098 86.0264 93.3951 86.186C92.7874 86.6373 92.068 87.1509 91.8022 87.8064C91.261 89.144 90.1762 89.5378 88.999 89.7638C87.313 90.0871 85.6351 89.8618 84.0642 89.1675C83.1333 88.7567 82.3061 88.0106 82.4503 86.7856C82.5062 86.3116 82.635 85.8644 83.1397 85.6529C83.6202 85.452 83.8851 85.785 84.2003 86.0475C84.9157 86.6446 85.5784 87.3519 86.5133 87.5949C88.2131 88.0381 89.9826 87.7003 90.7709 85.5492C91.2286 84.2999 91.1938 83.0563 90.9256 81.7875C90.8454 81.4051 90.7879 81.013 90.7725 80.6233C90.7555 80.1655 90.5554 79.8836 90.1162 79.7831C89.3798 79.6146 88.6344 79.4825 87.9044 79.2889C87.5002 79.182 87.1202 78.981 86.6835 78.8174Z" fill="#DCF8FA"/>
<path d="M106.436 29.7815C107.002 32.1724 107.453 34.5268 107.281 36.9541C107.177 38.4157 106.851 39.8238 105.875 40.9508C105.206 41.7245 104.237 42.0356 103.226 41.8776C100.758 41.4903 98.7283 40.0563 96.5506 38.9763C95.964 38.6847 95.3499 38.4481 94.7471 38.1888C93.1899 37.5204 92.8464 36.3214 93.6663 34.8881C94.3485 33.6955 95.1684 32.5751 95.9915 31.4708C97.0626 30.0327 98.4302 28.9082 100.004 28.055C101.514 27.2376 103.116 26.8584 104.783 27.4887C105.646 27.8152 106.013 28.644 106.317 29.4656C106.351 29.5555 106.395 29.6422 106.436 29.7815ZM99.8594 30.5982C99.7605 30.6582 99.6349 30.6971 99.5661 30.7813C98.7251 31.8167 97.8695 32.84 97.0683 33.9046C96.5611 34.5786 96.6138 35.2195 97.1242 35.6505C99.0565 37.283 101.178 38.5793 103.622 39.3053C104.285 39.5013 104.488 39.3547 104.511 38.6677C104.574 36.8431 104.325 35.0526 103.895 33.288C103.645 32.2591 103.354 31.2334 102.989 30.2401C102.738 29.5563 102.253 29.3546 101.575 29.6211C100.994 29.8496 100.472 30.2271 99.8594 30.5982Z" fill="white"/>
<path d="M107.094 64.3564C106.728 65.0889 105.438 65.1666 104.748 64.5363C103.432 63.3332 101.515 63.8533 100.89 65.562C100.718 66.0311 100.52 66.4937 100.294 66.9393C99.9786 67.5583 99.328 67.6466 98.7739 67.2423C97.7466 66.4929 97.9434 64.9916 98.7504 64.2941C99.6894 63.4806 100.777 62.8406 101.737 62.0474C103.305 60.7495 106.093 61.7509 106.898 63.0958C107.099 63.4312 107.06 63.9092 107.094 64.3564Z" fill="#DCF8FA"/>
<path d="M70.1952 75.2897C69.7375 74.7566 69.7035 74.2349 70.0211 73.6491C70.7551 72.292 71.5458 70.9107 73.1735 70.5931C74.2867 70.3759 75.4793 70.4845 76.6289 70.5631C77.1596 70.5988 77.7065 70.8483 78.1788 71.1197C78.4632 71.2825 78.6973 71.6455 78.8091 71.9688C78.9914 72.4905 78.5264 72.9904 77.8539 73.0172C77.5096 73.0309 77.1158 73.0115 76.8218 72.8584C74.5549 71.6787 73.0066 73.1184 72.1073 74.657C71.5499 75.6106 71.1999 75.7766 70.1952 75.2897Z" fill="#DCF8FA"/>
<path d="M74.3224 88.5815C75.0597 88.7015 75.7515 88.7946 76.4289 88.9534C76.8583 89.0539 77.1629 89.4322 76.9911 89.8284C76.8323 90.193 76.4645 90.6224 76.1097 90.7115C75.4453 90.8792 74.8555 91.008 74.4642 91.6586C74.1223 92.2274 73.5041 92.4558 72.8746 92.549C72.0952 92.6649 71.4349 91.7534 71.8392 91.0623C72.4355 90.0455 73.2213 89.1746 74.3224 88.5815Z" fill="#DCF8FA"/>
<path d="M75.2914 86.1371C74.6554 86.2472 74.0624 86.3534 73.4644 86.402C73.061 86.4344 72.7734 86.5089 72.4752 86.8678C72.1617 87.247 71.6537 87.5184 71.1789 87.6967C70.7365 87.8628 69.9547 86.7536 70.1921 86.2416C70.423 85.7449 70.7455 85.2256 71.1684 84.8959C72.0304 84.225 73.0496 83.9123 74.1717 83.9949C75.2315 84.0735 75.861 85.2005 75.2914 86.1371Z" fill="#DCF8FA"/>
<path d="M106.155 70.115C107.675 69.3024 109.269 68.8333 110.89 68.4542C111.426 68.3294 111.85 68.6948 111.864 69.2554C111.883 70.1782 111.689 70.4326 110.793 70.7308C110.392 70.8636 109.945 70.8564 109.545 70.9892C108.927 71.195 108.348 71.5223 107.723 71.6917C107.339 71.7954 106.846 71.8213 106.501 71.6641C106.025 71.4462 105.865 70.9301 105.963 70.3897C105.978 70.3022 106.065 70.2276 106.155 70.115Z" fill="#DCF8FA"/>
<path d="M70.12 81.3164C71.174 80.3159 72.4396 79.7811 73.7367 79.3161C74.1304 79.1743 74.495 79.3355 74.6992 79.7107C74.9544 80.1806 74.7972 80.9818 74.3743 81.216C73.8201 81.523 73.2408 81.7912 72.651 82.0237C71.8295 82.347 70.9942 82.6419 70.15 82.902C69.9385 82.9676 69.5917 82.9336 69.4556 82.7975C69.3422 82.684 69.3738 82.3162 69.4702 82.1274C69.6185 81.8374 69.8777 81.6049 70.12 81.3164Z" fill="#DCF8FA"/>
<path d="M110.739 80.1904C109.744 80.4286 109.086 80.2965 108.792 79.7853C108.449 79.1882 108.771 78.4833 109.446 78.4639C110.727 78.4266 112.016 78.3837 113.253 78.822C113.521 78.9176 113.786 79.0585 114.012 79.2319C114.381 79.5139 114.384 79.8193 114.056 80.1871C113.451 80.8661 112.951 81.1423 111.874 80.5841C111.537 80.4099 111.149 80.3346 110.739 80.1904Z" fill="#DCF8FA"/>
<path d="M110.053 74.7168C109.451 74.9615 108.906 75.2434 108.28 74.9574C107.913 74.7905 107.803 74.5928 107.979 74.1675C108.258 73.4942 108.891 73.4634 109.417 73.2974C110.393 72.9887 111.396 72.7521 112.401 72.5463C112.702 72.4839 113.207 72.5131 113.334 72.6978C113.559 73.0187 113.586 73.4902 113.64 73.9058C113.654 73.999 113.449 74.195 113.322 74.2185C112.728 74.3271 112.124 74.3871 111.525 74.4754C111.05 74.5459 110.577 74.6325 110.053 74.7168Z" fill="#DCF8FA"/>
<path d="M36.0881 121.123C36.8894 121.278 37.6445 121.412 38.3266 121.533C38.3266 123.598 38.3858 125.617 38.3112 127.631C38.2221 130.06 37.4225 132.333 36.3336 134.464C35.6393 135.826 34.6986 137.076 33.7621 138.292C32.3175 140.168 30.4913 141.647 28.5242 142.95C28.0632 143.255 27.5909 143.545 27.1056 143.809C26.9808 143.878 26.7531 143.88 26.63 143.809C24.1703 142.43 21.9892 140.685 20.1331 138.569C17.8346 135.95 16.322 132.912 15.6722 129.477C15.4737 128.43 15.3538 127.359 15.3133 126.295C15.2542 124.739 15.2979 123.18 15.2979 121.528C19.7467 121.055 23.6023 119.099 26.8358 115.816C27.4936 116.4 28.1045 116.998 28.7705 117.525C30.9353 119.237 33.3578 120.44 36.0881 121.123ZM30.4257 140.808C30.6558 140.62 30.8956 140.441 31.1127 140.239C33.3821 138.132 35.2398 135.733 36.4016 132.832C37.2928 130.608 37.8567 128.318 37.843 125.907C37.8365 124.782 37.8438 123.657 37.8405 122.532C37.8397 122.362 37.817 122.191 37.8073 122.056C33.5644 121.373 29.8991 119.663 26.9038 116.699C26.2306 117.255 25.6148 117.787 24.974 118.289C22.4105 120.291 19.502 121.504 16.2928 121.983C15.8529 122.049 15.7735 122.209 15.7751 122.588C15.784 124.858 15.7873 127.128 16.2572 129.368C16.988 132.859 18.5492 135.921 20.9465 138.551C22.5645 140.327 24.4117 141.831 26.5085 143.01C26.6964 143.116 27.0594 143.119 27.2344 143.005C28.2957 142.32 29.3255 141.587 30.4257 140.808Z" fill="#7ED957"/>
<path d="M19.9735 128.357C20.5973 127.793 21.1887 127.26 21.7656 126.739C22.7718 127.754 23.7846 128.773 24.7754 129.772C27.1784 127.368 29.4842 125.061 31.7357 122.808C32.8846 123.957 33.9257 125.001 34.957 126.035C31.7049 129.359 28.371 132.769 24.9772 136.24C22.7921 133.995 20.731 131.881 18.5394 129.631C19.0199 129.205 19.4809 128.796 19.9735 128.357ZM23.8575 133.392C24.1783 133.745 24.5 134.098 25.0007 134.648C27.8088 131.661 30.5358 128.758 33.2062 125.917C32.8335 125.537 32.362 125.058 31.8605 124.547C29.5758 126.829 27.2619 129.14 25.0258 131.375C23.8915 130.268 22.8642 129.263 21.8247 128.248C21.3022 128.792 20.8079 129.306 20.2894 129.846C21.4358 130.985 22.6163 132.158 23.8575 133.392Z" fill="#7ED957"/>
<path d="M49.6951 123.257V137.199H46.7477V123.257H49.6951ZM54.9654 131.154V137.199H52.0657V126.743H54.8293V128.588H54.9516C55.1833 127.98 55.5714 127.499 56.1159 127.144C56.6603 126.786 57.3206 126.607 58.0968 126.607C58.8227 126.607 59.4563 126.765 59.9958 127.082C60.5362 127.401 60.9559 127.855 61.2557 128.446C61.5546 129.029 61.7045 129.729 61.7045 130.542V137.199H58.8049V131.059C58.8089 130.419 58.6461 129.919 58.3147 129.561C57.9833 129.198 57.5272 129.016 56.9463 129.016C56.5558 129.016 56.2115 129.1 55.9117 129.269C55.6168 129.437 55.3851 129.68 55.2174 130.003C55.0537 130.322 54.9703 130.705 54.9654 131.154ZM69.552 126.743V128.921H63.2552V126.743H69.552ZM64.6844 124.237H67.584V133.987C67.584 134.253 67.6254 134.463 67.7064 134.612C67.7882 134.758 67.9016 134.859 68.0475 134.918C68.1965 134.977 68.3691 135.007 68.5644 135.007C68.7005 135.007 68.8366 134.996 68.9727 134.973C69.1088 134.945 69.2133 134.926 69.2862 134.912L69.7424 137.07C69.5973 137.115 69.3924 137.167 69.1299 137.226C68.8666 137.29 68.5465 137.328 68.1698 137.341C67.4706 137.369 66.8581 137.277 66.3315 137.062C65.8097 136.85 65.4038 136.518 65.113 136.068C64.8229 135.619 64.6795 135.053 64.6844 134.367V124.237ZM76.0934 137.402C75.0175 137.402 74.0923 137.185 73.3161 136.749C72.5448 136.309 71.9501 135.688 71.5329 134.885C71.1148 134.077 70.9066 133.121 70.9066 132.019C70.9066 130.944 71.1148 129.998 71.5329 129.186C71.9501 128.375 72.5375 127.742 73.2958 127.288C74.0582 126.834 74.9519 126.607 75.9776 126.607C76.667 126.607 77.3095 126.718 77.9042 126.94C78.5029 127.158 79.0247 127.486 79.4695 127.927C79.9191 128.367 80.2683 128.921 80.5178 129.588C80.7674 130.252 80.8921 131.027 80.8921 131.917V132.714H72.0636V130.916H78.1626C78.1626 130.499 78.0719 130.129 77.8904 129.807C77.7089 129.483 77.457 129.232 77.1345 129.05C76.8169 128.865 76.4475 128.771 76.0254 128.771C75.5854 128.771 75.1949 128.874 74.8546 129.078C74.5184 129.278 74.2551 129.548 74.0647 129.888C73.8743 130.223 73.7763 130.598 73.7722 131.011V132.719C73.7722 133.238 73.867 133.684 74.0582 134.061C74.2535 134.437 74.5273 134.728 74.8814 134.931C75.2354 135.136 75.6551 135.238 76.1412 135.238C76.4629 135.238 76.7578 135.194 77.0259 135.102C77.2933 135.011 77.5226 134.875 77.7138 134.693C77.9042 134.512 78.0492 134.29 78.1489 134.027L80.8314 134.204C80.6953 134.848 80.4158 135.411 79.9937 135.891C79.5764 136.368 79.036 136.74 78.3741 137.009C77.7154 137.27 76.9555 137.402 76.0934 137.402ZM87.4952 141.338C86.5562 141.338 85.7508 141.208 85.0784 140.95C84.4116 140.696 83.8809 140.348 83.4856 139.908C83.091 139.468 82.835 138.973 82.7167 138.424L85.3984 138.063C85.4802 138.272 85.6099 138.467 85.7865 138.648C85.9639 138.83 86.1972 138.975 86.4881 139.084C86.783 139.198 87.1411 139.255 87.5632 139.255C88.1943 139.255 88.7137 139.1 89.122 138.792C89.5352 138.488 89.7418 137.978 89.7418 137.26V135.348H89.6195C89.4923 135.639 89.3019 135.912 89.0475 136.172C88.7931 136.429 88.4666 136.64 88.0672 136.804C87.6677 136.966 87.1913 137.049 86.638 137.049C85.8529 137.049 85.1375 136.868 84.4934 136.504C83.8534 136.137 83.343 135.577 82.9622 134.824C82.5854 134.066 82.3967 133.108 82.3967 131.95C82.3967 130.767 82.5895 129.777 82.9751 128.983C83.3608 128.188 83.8736 127.593 84.5137 127.2C85.1586 126.804 85.8643 126.607 86.6307 126.607C87.2165 126.607 87.7066 126.706 88.1012 126.906C88.4957 127.102 88.8133 127.346 89.054 127.641C89.2994 127.931 89.4874 128.218 89.6195 128.499H89.728V126.743H92.6074V137.3C92.6074 138.19 92.3895 138.934 91.9544 139.533C91.5185 140.133 90.915 140.582 90.1437 140.881C89.3764 141.185 88.4933 141.338 87.4952 141.338ZM87.5567 134.87C88.0242 134.87 88.4188 134.755 88.7412 134.524C89.0677 134.287 89.3173 133.952 89.4898 133.516C89.6673 133.076 89.7556 132.549 89.7556 131.936C89.7556 131.324 89.6689 130.794 89.4963 130.344C89.3246 129.89 89.0742 129.539 88.7477 129.288C88.4212 129.04 88.0242 128.914 87.5567 128.914C87.0803 128.914 86.6785 129.044 86.352 129.302C86.0255 129.557 85.7776 129.91 85.6099 130.363C85.4421 130.817 85.3579 131.341 85.3579 131.936C85.3579 132.54 85.4421 133.062 85.6099 133.503C85.7824 133.939 86.0295 134.276 86.352 134.516C86.6785 134.753 87.0803 134.87 87.5567 134.87ZM94.9148 137.199V126.743H97.727V128.566H97.8356C98.026 127.918 98.346 127.428 98.7956 127.098C99.2445 126.761 99.7622 126.593 100.347 126.593C100.493 126.593 100.649 126.602 100.817 126.62C100.985 126.637 101.132 126.663 101.259 126.695V129.269C101.123 129.227 100.935 129.191 100.695 129.16C100.454 129.128 100.234 129.112 100.034 129.112C99.6074 129.112 99.2266 129.205 98.8904 129.39C98.5591 129.573 98.2957 129.826 98.1013 130.153C97.9101 130.481 97.8153 130.857 97.8153 131.283V137.199H94.9148ZM105.441 137.397C104.774 137.397 104.179 137.281 103.658 137.049C103.136 136.813 102.723 136.467 102.419 136.008C102.119 135.544 101.969 134.969 101.969 134.278C101.969 133.697 102.076 133.209 102.289 132.815C102.502 132.42 102.793 132.102 103.16 131.861C103.528 131.622 103.946 131.44 104.413 131.318C104.885 131.195 105.379 131.108 105.897 131.059C106.505 130.995 106.996 130.935 107.367 130.882C107.739 130.822 108.01 130.737 108.178 130.623C108.345 130.509 108.43 130.342 108.43 130.12V130.077C108.43 129.648 108.293 129.314 108.021 129.078C107.753 128.842 107.371 128.724 106.877 128.724C106.355 128.724 105.94 128.839 105.631 129.071C105.322 129.297 105.118 129.583 105.019 129.928L102.337 129.71C102.473 129.076 102.74 128.526 103.14 128.063C103.539 127.596 104.055 127.237 104.686 126.988C105.321 126.734 106.056 126.607 106.891 126.607C107.472 126.607 108.028 126.675 108.558 126.812C109.095 126.948 109.568 127.158 109.981 127.444C110.399 127.73 110.727 128.098 110.968 128.547C111.209 128.992 111.329 129.525 111.329 130.146V137.199H108.579V135.749H108.498C108.329 136.075 108.105 136.363 107.824 136.613C107.542 136.859 107.204 137.052 106.809 137.191C106.415 137.328 105.958 137.397 105.441 137.397ZM106.271 135.394C106.698 135.394 107.075 135.31 107.401 135.143C107.728 134.97 107.985 134.74 108.17 134.449C108.357 134.158 108.45 133.829 108.45 133.462V132.352C108.359 132.411 108.234 132.465 108.075 132.516C107.921 132.561 107.747 132.604 107.551 132.645C107.356 132.681 107.161 132.715 106.966 132.746C106.77 132.774 106.594 132.799 106.435 132.822C106.095 132.873 105.797 132.951 105.543 133.06C105.288 133.168 105.092 133.317 104.951 133.503C104.81 133.684 104.74 133.911 104.74 134.183C104.74 134.578 104.883 134.88 105.169 135.088C105.459 135.293 105.826 135.394 106.271 135.394Z" fill="white"/>
<mask id="mask0_201_157" style="mask-type:luminance" maskUnits="userSpaceOnUse" x="113" y="122" width="39" height="16">
<path d="M113.244 122.993H151.407V137.511H113.244V122.993Z" fill="white"/>
</mask>
<g mask="url(#mask0_201_157)">
<mask id="mask1_201_157" style="mask-type:luminance" maskUnits="userSpaceOnUse" x="113" y="123" width="39" height="15">
<path d="M125.933 128.139H122.952C122.898 127.753 122.787 127.411 122.619 127.112C122.45 126.807 122.236 126.549 121.972 126.334C121.709 126.122 121.404 125.958 121.06 125.845C120.719 125.73 120.349 125.675 119.95 125.675C119.229 125.675 118.6 125.854 118.065 126.213C117.529 126.567 117.114 127.083 116.819 127.764C116.524 128.441 116.376 129.262 116.376 130.228C116.376 131.223 116.524 132.058 116.819 132.734C117.119 133.41 117.537 133.921 118.071 134.266C118.607 134.61 119.226 134.782 119.93 134.782C120.325 134.782 120.691 134.731 121.026 134.626C121.366 134.522 121.669 134.37 121.93 134.169C122.194 133.966 122.412 133.719 122.585 133.428C122.761 133.138 122.885 132.807 122.952 132.434L125.933 132.448C125.857 133.089 125.664 133.705 125.356 134.3C125.051 134.89 124.641 135.419 124.123 135.886C123.611 136.349 122.998 136.716 122.285 136.988C121.577 137.256 120.776 137.389 119.881 137.389C118.638 137.389 117.528 137.108 116.547 136.546C115.572 135.983 114.799 135.168 114.233 134.102C113.67 133.036 113.388 131.745 113.388 130.228C113.388 128.708 113.674 127.416 114.246 126.349C114.818 125.282 115.594 124.47 116.573 123.912C117.554 123.349 118.656 123.067 119.881 123.067C120.691 123.067 121.439 123.181 122.128 123.408C122.823 123.635 123.439 123.966 123.973 124.403C124.509 124.832 124.945 125.361 125.28 125.988C125.621 126.614 125.839 127.331 125.933 128.139ZM130.188 137.199H127.03L131.843 123.258H135.641L140.446 137.199H137.288L133.795 126.443H133.686L130.188 137.199ZM129.99 131.719H137.451V134.019H129.99V131.719ZM139.891 125.689V123.258H151.34V125.689H147.072V137.199H144.159V125.689H139.891Z" fill="white"/>
</mask>
<g mask="url(#mask1_201_157)">
<path d="M113.388 123.067V137.389H151.34V123.067H113.388Z" fill="url(#paint0_linear_201_157)"/>
</g>
</g>
<defs>
<linearGradient id="paint0_linear_201_157" x1="132.364" y1="123.067" x2="132.364" y2="137.389" gradientUnits="userSpaceOnUse">
<stop stop-color="#7ED957"/>
<stop offset="1" stop-color="#0097B2"/>
</linearGradient>
</defs>
</svg>
