<svg width="287" height="287" viewBox="0 0 287 287" fill="none" xmlns="http://www.w3.org/2000/svg">
<g clip-path="url(#clip0_353_77)">
<path d="M31.0264 35.3537C33.4655 35.7278 35.7541 36.0015 37.9976 36.4836C42.3392 37.4151 46.7185 38.2513 50.9673 39.5143C60.1068 42.2286 68.9229 45.8168 77.3404 50.3113C81.093 52.3151 84.8355 54.3841 88.3524 56.767C90.2575 58.0601 91.8493 58.4091 94.0828 57.8241C100.873 56.0413 107.777 54.6954 114.553 52.8625C123.341 50.4846 132.047 47.7175 139.973 43.1351C144.387 40.5814 148.644 37.6512 152.597 34.4271C156.888 30.9269 160.666 26.8014 164.81 23.1053C171.498 17.1368 178.266 11.2461 186.598 7.57261C190.295 5.94301 194.08 4.79802 198.139 4.25816C203.303 3.57017 208.143 4.27072 212.896 6.19912C216.749 7.76093 219.915 10.2945 222.672 13.3277C226.324 17.3502 228.808 22.1185 230.518 27.2207C232.245 32.3782 233.446 37.6863 233.692 43.1727C233.862 46.914 234.155 50.6478 234.429 54.3841C235.045 62.8886 235.228 71.4811 237.489 79.7496C238.956 85.1029 240.994 90.3157 243.037 95.4882C246.553 104.4 250.213 113.271 252.535 122.576C253.62 126.908 253.996 131.425 254.532 135.879C254.833 138.38 254.893 140.919 254.921 143.442C255.019 151.166 253.708 158.704 251.747 166.139C250.492 170.892 249.208 175.602 249.296 180.614C249.384 185.802 251.474 190.116 254.62 193.957C260.463 201.093 266.923 207.788 271.473 215.863C274.782 221.741 277.785 227.873 280.179 234.172C282.445 240.144 283.929 246.438 285.4 252.673C286.197 256.028 286.355 259.551 286.616 263.011C286.869 266.458 286.939 269.921 286.999 273.381C287.049 276.246 284.422 278.172 281.587 277.526C268.377 274.516 260.195 265.883 254.898 253.871C252.244 247.84 251.381 241.512 252.073 235.107C252.499 231.104 253.926 227.18 255.159 223.303C256.41 219.37 257.809 215.541 257.586 211.288C257.367 207.044 254.079 202.68 249.912 201.575C247.619 200.968 244.335 202.183 243.009 204.277C239.76 209.405 236.434 214.492 233.393 219.742C228.636 227.943 224.091 236.262 219.428 244.578C221.246 246.182 223.146 247.626 224.768 249.336C231.027 255.942 235.341 263.658 237.356 272.567C237.767 274.403 237.8 276.359 237.745 278.252C237.652 281.649 234.042 285.109 230.586 282.739C231.207 274.395 229.164 266.812 224.284 260.028C221.078 255.571 217.024 252.091 212.091 249.66C206.79 247.046 201.127 245.994 195.309 246.499C185.781 247.327 177.418 251.247 169.74 256.841C163.649 261.278 158.493 266.601 154.775 273.125C153.118 276.03 152.334 279.45 151.266 282.671C150.549 284.828 150.075 287.063 149.401 289.237C148.807 291.153 148.105 291.364 145.724 290.553C143.911 289.938 143.63 289.305 144.159 287.477C144.939 284.773 145.904 282.081 146.257 279.317C146.4 278.217 145.307 276.776 144.455 275.764C140.542 271.126 135.165 269.316 129.45 268.093C123.133 266.739 116.48 266.468 110.712 263.212C107.371 261.326 104.182 259.068 101.242 256.603C97.8378 253.745 94.8448 250.401 91.5535 247.4C87.0565 243.3 82.1333 239.636 75.9968 238.742C70.7879 237.984 65.4511 237.949 60.1695 237.891C51.7695 237.803 44.0037 235.699 37.2932 230.635C30.5928 225.575 26.0431 218.858 23.7795 210.71C23.4587 209.553 23.584 208.224 23.7144 206.999C23.8547 205.678 25.9654 205.086 26.9029 206.206C28.2064 207.767 29.54 209.43 30.3321 211.278C34.9795 222.097 42.7378 229.555 54.2386 232.116C63.561 234.193 72.129 231.78 78.8294 224.578C82.5544 220.576 84.7854 215.74 85.6051 210.276C87.1768 199.8 83.6047 190.901 77.4081 182.741C71.8934 175.477 64.7417 170.277 56.8706 165.903C52.0653 163.231 47.0168 161.174 41.6424 160.213C33.854 158.817 26.6071 160.296 20.2275 165.262C14.3017 169.875 10.8599 176.125 8.8245 183.143C7.48591 187.75 6.69129 192.526 5.79138 197.252C4.41018 204.488 4.76613 211.843 5.15718 219.099C5.57079 226.723 6.92942 234.303 8.01984 241.881C9.28072 250.647 11.6546 259.139 14.7052 267.445C14.7178 267.48 14.6426 267.548 14.615 267.588C11.5994 266.792 9.46872 265.014 8.7869 261.903C8.16523 259.074 7.85189 256.178 7.25028 253.344C6.07213 247.812 4.61824 242.333 3.60051 236.776C2.72567 232.001 2.05387 227.159 1.73051 222.318C1.25674 215.232 0.898277 208.116 1.02612 201.026C1.10633 196.566 2.01126 192.099 2.83095 187.687C3.88377 182.01 5.78636 176.559 8.4134 171.422C11.2635 165.85 14.6526 160.63 19.1697 156.195C21.353 154.051 23.3709 151.718 25.2911 149.33C28.4094 145.456 28.417 141.077 26.8452 136.607C24.3435 129.494 21.4308 122.508 19.3 115.287C16.9237 107.232 15.0136 99.0211 13.3015 90.7927C12.0682 84.8669 11.4139 78.813 10.6544 72.7968C10.2333 69.4548 10.2358 66.0625 9.85225 62.7129C9.22557 57.2415 9.95001 51.9585 11.6746 46.7734C13.6173 40.938 17.6958 37.4327 23.6041 36.1396C25.9654 35.6223 28.432 35.5972 31.0264 35.3537ZM104.914 63.0067C103.744 63.6218 102.563 64.2144 101.407 64.8547C98.5021 66.4617 98.1311 68.0863 99.9284 70.8282C104.237 77.3944 106.995 84.4652 106.466 92.4776C106.065 98.5264 105.716 104.59 104.929 110.594C104.265 115.659 103.345 120.748 101.899 125.637C100.67 129.79 98.7076 133.76 96.7449 137.647C94.4462 142.197 92.0974 146.777 89.2197 150.962C85.3469 156.597 80.9651 161.885 76.7514 167.284C76.0269 168.21 75.7261 168.973 76.5433 169.96C78.2128 171.971 79.787 174.068 81.5241 176.019C84.6951 179.582 87.1968 183.569 88.5354 188.119C90.4656 194.675 92.2704 201.287 93.6867 207.968C94.2457 210.61 93.9048 213.545 93.4812 216.269C92.659 221.57 89.2849 225.449 85.6 229.053C84.0258 230.589 83.9832 231.491 85.956 232.591C89.4077 234.514 92.8871 236.415 96.4842 238.039C101.6 240.357 106.774 242.569 112.031 244.545C118.378 246.931 124.845 248.987 131.616 249.851C135.591 250.358 139.56 251.036 143.553 251.229C146.33 251.365 149.14 250.777 151.94 250.564C159.277 250.004 166.254 247.867 172.931 245.007C182.881 240.749 192.677 236.113 202.45 231.458C209.066 228.307 215.104 224.161 220.591 219.328C227.62 213.141 233.19 205.786 236.549 196.965C238.745 191.21 240.831 185.397 242.573 179.494C244.581 172.68 245.548 165.646 246.012 158.54C246.383 152.841 247.16 147.173 246.388 141.436C245.531 135.103 244.997 128.726 244.084 122.4C243.189 116.191 241.202 110.27 238.532 104.595C235.133 97.3664 230.661 90.8053 225.833 84.4752C224.191 82.3233 223.544 80.2217 224.555 77.4295C226.861 71.0392 227.751 64.35 227.69 57.5529C227.685 56.5234 227.487 55.4939 227.33 54.4695C226.593 49.6233 226.212 44.6843 225.016 39.9537C222.722 30.8892 218.869 22.5554 211.515 16.3559C207.544 13.0063 202.904 11.3591 197.808 12.8782C194.01 14.0107 190.293 15.6152 186.778 17.4632C180.66 20.6747 175.095 24.7575 170.004 29.4504C163.133 35.7805 157.287 42.9392 152.233 50.816C150.441 53.6132 147.877 55.7852 143.924 55.2152C142.084 54.9516 140.119 55.2554 138.251 55.5617C133.491 56.3426 128.715 57.0984 124.02 58.1806C117.716 59.632 111.479 61.3771 104.914 63.0067ZM38.3937 60.3802C35.1625 59.4587 31.8988 58.7782 28.5498 59.6495C24.7371 60.6439 22.4008 63.4586 22.6039 67.0593C22.7518 69.7109 23.213 72.3574 23.6943 74.9763C25.4966 84.7338 29.2742 93.6778 34.8617 101.871C37.2807 105.419 40.2737 106.358 43.916 104.141C49.4708 100.761 54.1985 96.4649 57.6126 90.8078C62.2225 83.1745 59.6004 74.9788 54.2235 69.6355C49.897 65.3368 44.5451 62.3538 38.3937 60.3802Z" fill="#DCF8FA"/>
<path d="M71.0278 188.278C70.6978 187.327 70.3783 186.526 70.1845 185.696C69.4669 182.612 70.8732 181.25 73.8692 182.411C77.787 183.931 80.2304 187.064 81.7991 190.786C82.294 191.964 81.8619 193.327 80.6416 194.242C79.2876 195.257 77.8237 195.255 76.6897 194.221C74.7072 192.409 72.9474 190.362 71.0278 188.278Z" fill="#DCF8FA"/>
<path d="M64.425 195.825C64.6976 197.123 64.8995 198.321 64.998 199.524C65.0232 199.834 64.8087 200.29 64.5461 200.469C62.928 201.577 59.6641 200.868 59.0708 199.111C58.1873 196.498 56.7712 194.338 54.5902 192.524C53.376 191.512 54.3049 190.261 54.9789 189.433C55.3298 189.001 56.7005 188.865 57.324 189.151C60.4239 190.566 62.8725 192.691 64.425 195.825Z" fill="#DCF8FA"/>
<path d="M40 196.318C40.7064 194.374 42.0482 194.985 42.9951 195.609C46.2916 197.776 48.5601 200.77 48.9804 204.825C49.0892 205.897 48.7373 207.235 48.117 208.097C47.6638 208.724 46.3625 209.115 45.5523 208.97C44.8738 208.849 43.9977 207.877 43.8357 207.143C43.2104 204.305 42.1926 201.716 40.4962 199.337C39.9924 198.628 40.1468 197.444 40 196.318Z" fill="#DCF8FA"/>
<path d="M158.96 176.81C154.955 173.901 155.941 170.157 158.765 166.758C163.442 161.132 169.607 158.732 176.753 159.024C179.473 159.134 182.216 159.693 184.358 161.771C186.379 163.736 185.9 165.917 184.924 168.077C183.382 171.486 181.393 174.725 180.2 178.246C178.974 181.868 178.87 185.694 180.936 189.255C182.411 191.8 184.978 192.592 187.479 193.071C190.182 193.588 192.974 193.451 195.689 192.459C198.044 191.6 199.299 189.957 199.687 187.617C199.984 185.834 200.011 184.003 200.142 182.19C200.322 179.702 202.879 178.311 205.815 179.113C208.303 179.79 209.343 181.658 208.901 184.742C208.703 186.111 208.236 187.462 208.219 188.823C208.187 191.493 206.536 192.916 204.676 194.357C202.815 195.798 201.133 197.464 199.297 198.94C198.728 199.397 197.925 199.794 197.224 199.804C192.386 199.879 187.548 199.869 182.71 199.824C181.591 199.814 180.083 199.032 179.429 199.524C177.576 200.916 175.381 202.499 174.571 204.519C172.921 208.643 169.612 209.856 166.022 210.553C160.88 211.55 155.763 210.855 150.972 208.715C148.133 207.449 145.61 205.149 146.05 201.373C146.221 199.912 146.613 198.533 148.153 197.881C149.618 197.262 150.426 198.288 151.387 199.097C153.569 200.938 155.59 203.118 158.441 203.867C163.625 205.234 169.022 204.192 171.426 197.561C172.822 193.71 172.715 189.877 171.898 185.966C171.653 184.787 171.478 183.578 171.431 182.377C171.379 180.966 170.768 180.097 169.429 179.787C167.183 179.268 164.91 178.861 162.684 178.264C161.451 177.934 160.292 177.315 158.96 176.81Z" fill="#DCF8FA"/>
<path d="M219.306 32.1373C221.035 39.5964 222.413 46.9418 221.886 54.5147C221.57 59.0747 220.575 63.4678 217.594 66.9837C215.551 69.3977 212.592 70.3683 209.507 69.8754C201.97 68.6672 195.773 64.1932 189.123 60.8238C187.332 59.9138 185.457 59.1758 183.617 58.3669C178.862 56.2816 177.813 52.5406 180.317 48.0692C182.4 44.3484 184.903 40.8527 187.416 37.4075C190.687 32.9208 194.862 29.4124 199.669 26.7508C204.278 24.2004 209.171 23.0174 214.259 24.9839C216.894 26.0026 218.015 28.5884 218.945 31.1515C219.049 31.432 219.182 31.7025 219.306 32.1373ZM199.226 34.6851C198.924 34.8722 198.541 34.9935 198.331 35.2564C195.763 38.4868 193.151 41.6792 190.704 45.0006C189.155 47.1036 189.316 49.103 190.875 50.4477C196.775 55.541 203.251 59.5852 210.715 61.85C212.738 62.4617 213.359 62.0042 213.431 59.8608C213.621 54.1684 212.862 48.5823 211.548 43.077C210.784 39.8669 209.898 36.6668 208.783 33.5679C208.016 31.4346 206.534 30.8052 204.463 31.6368C202.69 32.3496 201.096 33.5275 199.226 34.6851Z" fill="white"/>
<path d="M223 135.638C221.823 138.061 217.674 138.318 215.458 136.233C211.229 132.252 205.064 133.973 203.056 139.626C202.504 141.178 201.866 142.709 201.139 144.183C200.126 146.231 198.035 146.523 196.254 145.185C192.951 142.706 193.584 137.739 196.178 135.431C199.197 132.74 202.694 130.623 205.778 127.998C210.82 123.704 219.781 127.017 222.37 131.467C223.013 132.577 222.888 134.158 223 135.638Z" fill="#DCF8FA"/>
<path d="M104.229 168.113C102.76 166.332 102.651 164.59 103.67 162.633C106.026 158.101 108.564 153.487 113.787 152.427C117.359 151.701 121.186 152.064 124.876 152.327C126.579 152.446 128.334 153.279 129.849 154.185C130.762 154.729 131.513 155.942 131.872 157.021C132.457 158.764 130.965 160.433 128.807 160.523C127.702 160.569 126.438 160.504 125.494 159.992C118.22 156.053 113.251 160.861 110.365 165.999C108.577 169.184 107.453 169.739 104.229 168.113Z" fill="#DCF8FA"/>
<path d="M117.343 208C119.42 208.332 121.37 208.589 123.278 209.028C124.488 209.306 125.347 210.353 124.863 211.448C124.415 212.457 123.379 213.644 122.379 213.891C120.507 214.354 118.845 214.711 117.742 216.51C116.779 218.083 115.037 218.715 113.263 218.972C111.067 219.293 109.206 216.772 110.345 214.861C112.026 212.049 114.24 209.64 117.343 208Z" fill="#DCF8FA"/>
<path d="M119.359 200.353C117.46 200.678 115.689 200.991 113.903 201.134C112.698 201.23 111.839 201.449 110.949 202.507C110.013 203.625 108.496 204.425 107.078 204.951C105.757 205.44 103.422 202.171 104.131 200.661C104.821 199.197 105.784 197.666 107.047 196.694C109.621 194.717 112.665 193.795 116.015 194.038C119.18 194.27 121.06 197.592 119.359 200.353Z" fill="#DCF8FA"/>
<path d="M220.705 151.541C225.575 148.869 230.681 147.327 235.876 146.08C237.594 145.67 238.952 146.871 238.996 148.715C239.058 151.748 238.435 152.585 235.564 153.565C234.279 154.002 232.849 153.978 231.566 154.414C229.586 155.091 227.73 156.167 225.728 156.724C224.498 157.065 222.917 157.15 221.813 156.633C220.287 155.917 219.776 154.22 220.087 152.443C220.137 152.156 220.414 151.911 220.705 151.541Z" fill="#DCF8FA"/>
<path d="M104.167 185.591C107.268 182.864 110.991 181.406 114.806 180.139C115.964 179.752 117.037 180.192 117.638 181.214C118.388 182.495 117.926 184.679 116.682 185.317C115.052 186.154 113.348 186.885 111.613 187.518C109.196 188.399 106.739 189.203 104.255 189.912C103.633 190.091 102.613 189.998 102.213 189.627C101.879 189.318 101.972 188.315 102.256 187.801C102.692 187.01 103.454 186.377 104.167 185.591Z" fill="#DCF8FA"/>
<path d="M235.654 181.73C232.48 182.511 230.379 182.078 229.443 180.403C228.347 178.446 229.376 176.136 231.529 176.072C235.615 175.95 239.727 175.809 243.674 177.246C244.529 177.559 245.375 178.021 246.096 178.589C247.272 179.513 247.282 180.514 246.235 181.72C244.305 183.945 242.71 184.85 239.275 183.021C238.2 182.45 236.962 182.203 235.654 181.73Z" fill="#DCF8FA"/>
<path d="M232.757 165.872C230.871 166.637 229.162 167.517 227.199 166.624C226.049 166.103 225.706 165.485 226.257 164.157C227.131 162.054 229.116 161.957 230.764 161.439C233.824 160.475 236.967 159.736 240.116 159.093C241.06 158.898 242.642 158.989 243.041 159.566C243.744 160.568 243.83 162.041 243.998 163.339C244.041 163.63 243.401 164.243 243.003 164.316C241.139 164.655 239.247 164.842 237.371 165.118C235.883 165.338 234.4 165.609 232.757 165.872Z" fill="#DCF8FA"/>
</g>
<defs>
<clipPath id="clip0_353_77">
<rect width="287" height="287" fill="white"/>
</clipPath>
</defs>
</svg>
