<svg width="287" height="287" viewBox="0 0 287 287" fill="none" xmlns="http://www.w3.org/2000/svg">
<path d="M82.089 51.8555C83.4357 52.0617 84.6993 52.2126 85.9381 52.4783C88.3353 52.9918 90.7532 53.4527 93.0992 54.1489C98.1455 55.645 103.013 57.6229 107.661 60.1004C109.733 61.2048 111.799 62.3453 113.741 63.6588C114.793 64.3716 115.672 64.564 116.905 64.2415C120.655 63.2588 124.466 62.5169 128.207 61.5066C133.06 60.1959 137.867 58.6706 142.243 56.1447C144.681 54.7371 147.031 53.1219 149.213 51.3447C151.583 49.4154 153.669 47.1413 155.957 45.104C159.649 41.8141 163.386 38.567 167.987 36.5421C170.028 35.6439 172.118 35.0128 174.359 34.7152C177.21 34.3359 179.883 34.7221 182.507 35.7851C184.634 36.646 186.382 38.0425 187.905 39.7144C189.922 41.9317 191.293 44.56 192.237 47.3725C193.191 50.2153 193.854 53.1413 193.989 56.1654C194.083 58.2277 194.245 60.2858 194.396 62.3453C194.737 67.0331 194.838 71.7694 196.086 76.3272C196.896 79.278 198.021 82.1513 199.149 85.0025C201.091 89.9145 203.112 94.8045 204.393 99.9338C204.993 102.321 205.2 104.811 205.496 107.267C205.663 108.645 205.696 110.044 205.711 111.435C205.765 115.693 205.041 119.848 203.959 123.946C203.265 126.566 202.557 129.163 202.605 131.925C202.654 134.785 203.808 137.162 205.545 139.28C208.771 143.214 212.338 146.903 214.85 151.355C216.677 154.595 218.335 157.975 219.657 161.447C220.908 164.739 221.727 168.208 222.54 171.645C222.98 173.494 223.067 175.436 223.211 177.343C223.351 179.244 223.39 181.152 223.423 183.059C223.451 184.639 222 185.7 220.435 185.345C213.141 183.685 208.623 178.927 205.699 172.305C204.233 168.981 203.757 165.493 204.139 161.962C204.374 159.756 205.161 157.593 205.842 155.456C206.533 153.288 207.305 151.177 207.182 148.833C207.062 146.494 205.246 144.088 202.946 143.479C201.679 143.144 199.866 143.814 199.134 144.969C197.34 147.795 195.503 150.599 193.825 153.493C191.198 158.013 188.688 162.599 186.114 167.183C187.117 168.067 188.167 168.863 189.062 169.806C192.518 173.447 194.9 177.7 196.013 182.611C196.24 183.623 196.258 184.701 196.227 185.745C196.176 187.617 194.183 189.524 192.274 188.218C192.618 183.619 191.49 179.439 188.795 175.699C187.025 173.242 184.787 171.324 182.063 169.984C179.136 168.543 176.009 167.963 172.796 168.242C167.536 168.698 162.918 170.859 158.679 173.943C155.316 176.388 152.469 179.322 150.416 182.918C149.501 184.52 149.068 186.405 148.478 188.181C148.083 189.369 147.821 190.601 147.449 191.8C147.121 192.856 146.733 192.972 145.418 192.525C144.418 192.186 144.263 191.837 144.555 190.83C144.985 189.339 145.518 187.855 145.713 186.331C145.792 185.725 145.189 184.931 144.718 184.373C142.557 181.817 139.589 180.819 136.433 180.145C132.945 179.399 129.272 179.249 126.087 177.454C124.242 176.415 122.482 175.17 120.858 173.811C118.978 172.236 117.326 170.393 115.509 168.739C113.026 166.478 110.307 164.459 106.919 163.966C104.043 163.548 101.096 163.529 98.1801 163.497C93.5421 163.449 89.2543 162.289 85.5492 159.497C81.8495 156.708 79.3375 153.006 78.0877 148.515C77.9105 147.876 77.9797 147.144 78.0517 146.469C78.1292 145.741 79.2946 145.414 79.8122 146.032C80.5319 146.892 81.2682 147.809 81.7056 148.827C84.2717 154.791 88.5553 158.902 94.9054 160.314C100.053 161.458 104.784 160.128 108.483 156.159C110.54 153.953 111.772 151.287 112.224 148.275C113.092 142.501 111.12 137.596 107.698 133.097C104.653 129.093 100.705 126.227 96.3587 123.816C93.7055 122.343 90.9179 121.21 87.9505 120.68C83.6502 119.91 79.6489 120.725 76.1264 123.463C72.8545 126.005 70.9542 129.45 69.8303 133.319C69.0912 135.859 68.6525 138.491 68.1556 141.096C67.393 145.085 67.5895 149.139 67.8054 153.139C68.0338 157.341 68.784 161.519 69.386 165.696C70.0822 170.528 71.3929 175.209 73.0773 179.788C73.0843 179.807 73.0427 179.844 73.0275 179.866C71.3625 179.428 70.186 178.448 69.8096 176.733C69.4663 175.173 69.2933 173.577 68.9611 172.015C68.3106 168.966 67.5079 165.945 66.9459 162.883C66.4629 160.25 66.092 157.582 65.9134 154.913C65.6518 151.007 65.4539 147.085 65.5245 143.176C65.5688 140.718 66.0684 138.256 66.521 135.824C67.1023 132.695 68.1528 129.69 69.6033 126.858C71.177 123.787 73.0483 120.909 75.5424 118.465C76.7479 117.283 77.8621 115.997 78.9222 114.681C80.644 112.545 80.6482 110.132 79.7804 107.668C78.3991 103.747 76.7908 99.8964 75.6143 95.9159C74.3022 91.4758 73.2476 86.9499 72.3023 82.4143C71.6213 79.1479 71.2601 75.8109 70.8407 72.4947C70.6082 70.6525 70.6095 68.7826 70.3978 66.9363C70.0518 63.9204 70.4518 61.0083 71.404 58.1502C72.4767 54.9336 74.7285 53.0015 77.9908 52.2887C79.2946 52.0036 80.6565 51.9897 82.089 51.8555ZM122.886 67.0982C122.239 67.4373 121.587 67.7639 120.949 68.1169C119.345 69.0027 119.14 69.8982 120.133 71.4096C122.512 75.0289 124.034 78.9264 123.742 83.343C123.521 86.6772 123.329 90.0197 122.894 93.329C122.527 96.1207 122.019 98.9262 121.221 101.621C120.542 103.91 119.459 106.098 118.375 108.241C117.106 110.749 115.809 113.273 114.22 115.581C112.082 118.687 109.662 121.601 107.336 124.577C106.936 125.088 106.77 125.509 107.221 126.053C108.143 127.161 109.012 128.317 109.971 129.392C111.722 131.356 113.103 133.554 113.842 136.062C114.908 139.676 115.904 143.32 116.686 147.003C116.995 148.459 116.807 150.077 116.573 151.579C116.119 154.501 114.256 156.639 112.221 158.625C111.352 159.472 111.329 159.969 112.418 160.575C114.324 161.636 116.245 162.683 118.231 163.579C121.056 164.856 123.913 166.076 126.815 167.165C130.32 168.48 133.89 169.613 137.629 170.089C139.824 170.369 142.015 170.743 144.22 170.849C145.753 170.924 147.305 170.6 148.851 170.482C152.902 170.174 156.754 168.996 160.441 167.42C165.934 165.072 171.343 162.517 176.74 159.951C180.392 158.214 183.726 155.929 186.756 153.265C190.637 149.854 193.712 145.8 195.567 140.938C196.78 137.766 197.931 134.562 198.893 131.308C200.002 127.551 200.536 123.675 200.792 119.758C200.997 116.616 201.426 113.492 201 110.33C200.526 106.839 200.231 103.323 199.728 99.8369C199.234 96.4141 198.136 93.1505 196.662 90.0225C194.785 86.0378 192.316 82.4212 189.65 78.932C188.744 77.7458 188.387 76.5874 188.944 75.0483C190.218 71.5258 190.709 67.8387 190.676 64.092C190.673 63.5245 190.564 62.9571 190.477 62.3924C190.07 59.7211 189.859 56.9987 189.199 54.3911C187.933 49.3946 185.805 44.8009 181.744 41.3836C179.552 39.5373 176.99 38.6293 174.176 39.4667C172.08 40.0909 170.027 40.9753 168.087 41.994C164.708 43.7642 161.635 46.0147 158.824 48.6015C155.031 52.0908 151.803 56.0367 149.013 60.3786C148.023 61.9204 146.607 63.1176 144.425 62.8034C143.409 62.6581 142.324 62.8256 141.292 62.9944C138.664 63.4249 136.027 63.8415 133.435 64.438C129.954 65.238 126.511 66.1999 122.886 67.0982ZM86.1568 65.6505C84.3727 65.1425 82.5706 64.7674 80.7215 65.2477C78.6164 65.7958 77.3264 67.3473 77.4385 69.3321C77.5202 70.7937 77.7749 72.2525 78.0406 73.696C79.0357 79.0745 81.1215 84.0046 84.2066 88.5208C85.5422 90.4765 87.1948 90.9941 89.2059 89.772C92.2729 87.909 94.8833 85.5409 96.7684 82.4226C99.3137 78.215 97.866 73.6974 94.8971 70.7521C92.5082 68.3826 89.5533 66.7383 86.1568 65.6505Z" fill="#DCF8FA"/>
<path d="M40.7095 198.068C41.922 196.91 43.1026 195.823 44.2278 194.684C44.8147 194.09 45.306 193.404 45.9192 192.666C51.7032 200.29 59.3764 204.162 68.9722 204.55C68.9722 204.93 68.9722 205.294 68.9722 205.657C68.9722 208.951 69.0082 212.244 68.9625 215.536C68.9002 220.116 67.8345 224.486 66.121 228.722C64.7009 232.238 62.7065 235.402 60.3411 238.324C57.8484 241.402 54.9253 244.059 51.6021 246.232C49.7392 247.448 47.789 248.53 45.9635 249.619C42.5144 247.87 39.4113 245.914 36.5892 243.504C32.6183 240.112 29.3284 236.183 26.9215 231.551C25.3284 228.493 24.1935 225.24 23.4932 221.859C22.3084 216.145 23.0586 210.364 22.8053 204.559C29.5637 204.41 35.5013 202.334 40.7095 198.068ZM39.8625 243.618C41.6604 244.749 43.4417 245.907 45.27 246.987C45.5898 247.173 46.1877 247.171 46.5282 246.999C49.4375 245.526 52.1073 243.669 54.5128 241.484C58.4145 237.94 61.6435 233.885 63.8428 229.03C65.984 224.296 67.004 219.348 67.1106 214.191C67.1563 211.927 67.1175 209.662 67.1175 207.397C67.1175 207.067 67.1175 206.737 67.1175 206.403C58.546 205.694 51.5011 202.204 45.8873 195.833C40.2403 202.213 33.2079 205.736 24.6931 206.395C24.6931 207.705 24.7111 208.934 24.689 210.164C24.6032 214.897 24.7554 219.592 26.1118 224.194C27.6509 229.416 30.1976 234.059 33.8723 238.037C35.684 240.003 37.7739 241.709 39.8625 243.618Z" fill="#7ED957"/>
<path d="M102.579 140.52C102.404 140.011 102.235 139.582 102.133 139.137C101.754 137.486 102.497 136.757 104.08 137.378C106.151 138.192 107.442 139.87 108.271 141.863C108.533 142.494 108.305 143.223 107.66 143.713C106.944 144.257 106.17 144.256 105.571 143.702C104.523 142.732 103.593 141.636 102.579 140.52Z" fill="#DCF8FA"/>
<path d="M99.3276 144.711C99.4771 145.464 99.5878 146.159 99.6418 146.856C99.6556 147.036 99.538 147.301 99.394 147.405C98.5068 148.047 96.7172 147.636 96.392 146.617C95.9076 145.101 95.1311 143.849 93.9353 142.797C93.2695 142.21 93.7789 141.485 94.1484 141.005C94.3408 140.754 95.0924 140.675 95.4342 140.841C97.1338 141.662 98.4764 142.894 99.3276 144.711Z" fill="#DCF8FA"/>
<path d="M86.0654 145.041C86.4516 143.989 87.1851 144.32 87.7028 144.657C89.5048 145.83 90.745 147.449 90.9747 149.643C91.0342 150.223 90.8418 150.946 90.5027 151.413C90.255 151.752 89.5436 151.964 89.1007 151.885C88.7298 151.82 88.2509 151.294 88.1623 150.897C87.8204 149.362 87.264 147.961 86.3367 146.674C86.0613 146.29 86.1457 145.65 86.0654 145.041Z" fill="#DCF8FA"/>
<path d="M148.084 134.646C145.841 133.034 146.393 130.959 147.975 129.075C150.595 125.957 154.048 124.627 158.051 124.789C159.575 124.85 161.111 125.16 162.311 126.311C163.443 127.401 163.175 128.609 162.628 129.806C161.764 131.695 160.65 133.49 159.982 135.442C159.295 137.449 159.237 139.569 160.394 141.543C161.22 142.953 162.658 143.392 164.059 143.658C165.573 143.944 167.137 143.868 168.658 143.319C169.977 142.843 170.68 141.932 170.898 140.635C171.064 139.647 171.079 138.632 171.152 137.627C171.253 136.249 172.686 135.478 174.33 135.922C175.724 136.297 176.307 137.333 176.059 139.042C175.948 139.8 175.687 140.549 175.677 141.304C175.659 142.783 174.734 143.572 173.692 144.371C172.65 145.169 171.707 146.092 170.679 146.91C170.361 147.164 169.911 147.384 169.518 147.389C166.808 147.431 164.098 147.425 161.388 147.4C160.761 147.395 159.916 146.962 159.55 147.234C158.512 148.005 157.283 148.883 156.829 150.002C155.904 152.287 154.051 152.96 152.04 153.346C149.16 153.899 146.293 153.514 143.609 152.328C142.019 151.626 140.606 150.351 140.852 148.258C140.948 147.449 141.168 146.685 142.03 146.324C142.851 145.98 143.304 146.549 143.842 146.998C145.064 148.018 146.196 149.226 147.793 149.641C150.697 150.398 153.72 149.821 155.067 146.146C155.849 144.012 155.789 141.888 155.331 139.72C155.194 139.067 155.096 138.397 155.069 137.731C155.04 136.949 154.699 136.468 153.948 136.296C152.69 136.008 151.417 135.782 150.17 135.452C149.479 135.269 148.83 134.926 148.084 134.646Z" fill="#DCF8FA"/>
<path d="M181.828 50.8769C182.795 54.9613 183.566 58.9834 183.271 63.1301C183.094 65.6269 182.538 68.0324 180.87 69.9577C179.727 71.2795 178.071 71.8109 176.345 71.541C172.128 70.8795 168.661 68.4297 164.941 66.5847C163.939 66.0864 162.889 65.6823 161.86 65.2394C159.199 64.0975 158.613 62.0491 160.013 59.6007C161.179 57.5634 162.579 55.6492 163.986 53.7627C165.815 51.306 168.152 49.3849 170.841 47.9275C173.419 46.531 176.157 45.8832 179.004 46.96C180.478 47.5178 181.105 48.9337 181.625 50.3372C181.684 50.4908 181.758 50.6389 181.828 50.8769ZM170.593 52.2721C170.424 52.3745 170.21 52.4409 170.092 52.5849C168.655 54.3537 167.194 56.1018 165.825 57.9205C164.959 59.072 165.049 60.1668 165.92 60.9031C169.221 63.692 172.845 65.9065 177.021 67.1466C178.153 67.4816 178.5 67.2311 178.54 66.0574C178.647 62.9405 178.222 59.8817 177.487 56.8672C177.059 55.1094 176.564 53.3572 175.94 51.6603C175.511 50.4922 174.682 50.1475 173.523 50.6029C172.531 50.9932 171.639 51.6382 170.593 52.2721Z" fill="white"/>
<path d="M182.953 109.942C182.327 111.193 180.122 111.326 178.945 110.249C176.697 108.194 173.421 109.082 172.354 112.001C172.06 112.803 171.721 113.593 171.335 114.354C170.797 115.412 169.685 115.563 168.739 114.872C166.984 113.592 167.32 111.027 168.698 109.835C170.303 108.446 172.161 107.352 173.8 105.997C176.48 103.78 181.242 105.491 182.618 107.788C182.96 108.361 182.893 109.178 182.953 109.942Z" fill="#DCF8FA"/>
<path d="M119.917 128.62C119.135 127.709 119.077 126.818 119.619 125.817C120.873 123.499 122.224 121.139 125.005 120.597C126.906 120.226 128.944 120.411 130.908 120.545C131.814 120.606 132.749 121.033 133.555 121.496C134.041 121.774 134.441 122.394 134.632 122.947C134.944 123.838 134.149 124.692 133 124.738C132.412 124.761 131.74 124.728 131.237 124.466C127.365 122.451 124.72 124.911 123.183 127.539C122.231 129.168 121.633 129.452 119.917 128.62Z" fill="#DCF8FA"/>
<path d="M126.967 151.327C128.227 151.532 129.409 151.691 130.566 151.962C131.3 152.134 131.82 152.78 131.526 153.457C131.255 154.08 130.627 154.813 130.021 154.965C128.886 155.252 127.878 155.472 127.21 156.583C126.626 157.555 125.569 157.945 124.494 158.105C123.163 158.302 122.035 156.745 122.725 155.565C123.744 153.828 125.086 152.34 126.967 151.327Z" fill="#DCF8FA"/>
<path d="M128.623 147.151C127.536 147.339 126.523 147.521 125.502 147.604C124.812 147.659 124.321 147.786 123.812 148.4C123.276 149.047 122.408 149.511 121.597 149.815C120.842 150.099 119.506 148.204 119.911 147.33C120.306 146.481 120.857 145.594 121.579 145.031C123.052 143.885 124.793 143.35 126.71 143.492C128.52 143.626 129.596 145.551 128.623 147.151Z" fill="#DCF8FA"/>
<path d="M181.349 119.78C183.945 118.392 186.668 117.59 189.437 116.943C190.353 116.729 191.077 117.354 191.101 118.311C191.134 119.888 190.802 120.322 189.271 120.832C188.586 121.059 187.823 121.046 187.14 121.273C186.084 121.625 185.094 122.184 184.027 122.473C183.371 122.65 182.528 122.695 181.94 122.426C181.126 122.054 180.853 121.172 181.019 120.249C181.046 120.1 181.194 119.972 181.349 119.78Z" fill="#DCF8FA"/>
<path d="M119.788 138.916C121.589 137.207 123.751 136.293 125.967 135.499C126.639 135.256 127.262 135.532 127.611 136.173C128.047 136.975 127.778 138.344 127.056 138.744C126.109 139.269 125.12 139.727 124.112 140.124C122.709 140.676 121.282 141.18 119.839 141.624C119.478 141.737 118.886 141.678 118.653 141.446C118.46 141.252 118.514 140.624 118.678 140.301C118.931 139.806 119.374 139.409 119.788 138.916Z" fill="#DCF8FA"/>
<path d="M189.18 136.992C187.48 137.399 186.355 137.173 185.854 136.3C185.267 135.28 185.818 134.076 186.971 134.043C189.159 133.979 191.361 133.906 193.474 134.654C193.933 134.818 194.385 135.059 194.771 135.355C195.401 135.836 195.407 136.358 194.846 136.987C193.812 138.146 192.958 138.618 191.119 137.665C190.543 137.367 189.88 137.238 189.18 136.992Z" fill="#DCF8FA"/>
<path d="M188.007 127.641C186.979 128.059 186.047 128.541 184.978 128.053C184.351 127.767 184.164 127.43 184.464 126.703C184.94 125.553 186.023 125.5 186.921 125.217C188.589 124.689 190.302 124.285 192.018 123.934C192.533 123.827 193.395 123.877 193.613 124.192C193.996 124.74 194.043 125.546 194.135 126.256C194.158 126.415 193.809 126.75 193.592 126.79C192.576 126.976 191.545 127.078 190.522 127.229C189.711 127.349 188.903 127.497 188.007 127.641Z" fill="#DCF8FA"/>
<path d="M61.6505 206.919C63.0193 207.184 64.3093 207.412 65.4747 207.618C65.4747 211.146 65.5757 214.595 65.4484 218.036C65.2961 222.185 63.93 226.069 62.0699 229.709C60.8837 232.036 59.2768 234.171 57.6768 236.249C55.209 239.454 52.0893 241.98 48.7288 244.206C47.9413 244.728 47.1344 245.223 46.3053 245.674C46.0922 245.792 45.7033 245.795 45.4929 245.674C41.2909 243.317 37.5649 240.337 34.3941 236.722C30.4675 232.248 27.8834 227.057 26.7734 221.19C26.4343 219.402 26.2294 217.572 26.1602 215.754C26.0592 213.096 26.1339 210.433 26.1339 207.61C33.7339 206.803 40.3206 203.46 45.8444 197.852C46.9683 198.85 48.0119 199.872 49.1496 200.771C52.8478 203.696 56.9862 205.752 61.6505 206.919ZM51.9772 240.546C52.3703 240.225 52.78 239.921 53.1509 239.575C57.0277 235.975 60.2014 231.877 62.1861 226.922C63.7086 223.122 64.6719 219.21 64.6484 215.091C64.6373 213.17 64.6498 211.247 64.6442 209.326C64.6428 209.035 64.6041 208.743 64.5875 208.512C57.3391 207.345 51.0776 204.425 45.9607 199.361C44.8105 200.31 43.7586 201.22 42.6639 202.076C38.2847 205.498 33.3159 207.57 27.8336 208.388C27.082 208.5 26.9464 208.774 26.9492 209.422C26.9644 213.3 26.9699 217.176 27.7727 221.003C29.0211 226.967 31.6882 232.199 35.7837 236.692C38.5476 239.726 41.7033 242.295 45.2853 244.308C45.6064 244.49 46.2264 244.495 46.5254 244.3C48.3385 243.13 50.0977 241.878 51.9772 240.546Z" fill="#7ED957"/>
<path d="M34.1214 219.276C35.1871 218.314 36.1975 217.402 37.183 216.514C38.902 218.246 40.632 219.988 42.3248 221.694C46.4299 217.588 50.3689 213.646 54.2153 209.797C56.1779 211.761 57.9564 213.543 59.7183 215.309C54.1627 220.988 48.4672 226.814 42.6694 232.745C38.9366 228.909 35.4155 225.297 31.6716 221.453C32.4924 220.725 33.2799 220.026 34.1214 219.276ZM40.7566 227.878C41.3047 228.482 41.8542 229.085 42.7095 230.025C47.5067 224.92 52.1655 219.963 56.7273 215.109C56.0907 214.46 55.2852 213.64 54.4284 212.768C50.5253 216.667 46.5725 220.615 42.7524 224.432C40.8147 222.541 39.0597 220.825 37.284 219.091C36.3913 220.021 35.547 220.898 34.6612 221.82C36.6196 223.766 38.6362 225.77 40.7566 227.878Z" fill="#7ED957"/>
<path d="M84.8959 210.565V234.382H79.8607V210.565H84.8959ZM93.8992 224.055V234.382H88.9457V216.519H93.6667V219.671H93.8757C94.2716 218.633 94.9345 217.81 95.8646 217.204C96.7947 216.592 97.9227 216.287 99.2487 216.287C100.489 216.287 101.571 216.558 102.493 217.099C103.416 217.644 104.133 218.419 104.645 219.428C105.156 220.425 105.412 221.621 105.412 223.009V234.382H100.458V223.892C100.465 222.8 100.187 221.945 99.621 221.334C99.0549 220.714 98.2757 220.403 97.2833 220.403C96.6162 220.403 96.0279 220.545 95.5158 220.835C95.012 221.121 94.6162 221.538 94.3297 222.089C94.0501 222.634 93.9076 223.289 93.8992 224.055ZM118.818 216.519V220.241H108.061V216.519H118.818ZM110.503 212.238H115.456V228.894C115.456 229.349 115.527 229.708 115.665 229.962C115.805 230.212 115.999 230.385 116.248 230.484C116.502 230.587 116.797 230.637 117.131 230.637C117.363 230.637 117.596 230.619 117.828 230.58C118.061 230.531 118.239 230.498 118.364 230.475L119.143 234.162C118.896 234.238 118.545 234.328 118.097 234.427C117.647 234.537 117.1 234.602 116.457 234.624C115.262 234.672 114.216 234.515 113.316 234.148C112.425 233.785 111.732 233.218 111.235 232.45C110.739 231.683 110.494 230.715 110.503 229.543V212.238ZM129.993 234.729C128.155 234.729 126.574 234.358 125.248 233.614C123.931 232.862 122.915 231.801 122.202 230.429C121.488 229.048 121.132 227.414 121.132 225.532C121.132 223.695 121.488 222.08 122.202 220.693C122.915 219.308 123.918 218.226 125.214 217.451C126.516 216.675 128.043 216.287 129.795 216.287C130.973 216.287 132.07 216.478 133.086 216.857C134.109 217.228 135.001 217.79 135.76 218.543C136.529 219.294 137.125 220.241 137.551 221.38C137.978 222.513 138.191 223.838 138.191 225.358V226.72H123.109V223.648H133.528C133.528 222.936 133.373 222.303 133.063 221.754C132.753 221.2 132.322 220.771 131.771 220.461C131.229 220.144 130.598 219.985 129.877 219.985C129.125 219.985 128.458 220.159 127.877 220.508C127.302 220.85 126.853 221.311 126.527 221.892C126.202 222.465 126.035 223.104 126.028 223.81V226.729C126.028 227.615 126.19 228.376 126.516 229.021C126.85 229.664 127.318 230.16 127.922 230.508C128.527 230.858 129.244 231.032 130.075 231.032C130.624 231.032 131.128 230.956 131.586 230.8C132.043 230.643 132.434 230.411 132.761 230.101C133.086 229.792 133.334 229.413 133.504 228.963L138.087 229.265C137.854 230.365 137.377 231.327 136.656 232.148C135.943 232.962 135.02 233.598 133.889 234.057C132.764 234.504 131.466 234.729 129.993 234.729ZM149.471 241.453C147.867 241.453 146.491 241.23 145.342 240.79C144.203 240.355 143.297 239.762 142.621 239.01C141.947 238.257 141.51 237.413 141.308 236.475L145.889 235.857C146.029 236.216 146.25 236.548 146.552 236.858C146.855 237.168 147.254 237.416 147.751 237.603C148.254 237.796 148.866 237.895 149.587 237.895C150.665 237.895 151.553 237.63 152.25 237.103C152.956 236.584 153.309 235.712 153.309 234.486V231.219H153.1C152.883 231.716 152.557 232.184 152.123 232.627C151.688 233.067 151.13 233.427 150.448 233.706C149.766 233.985 148.952 234.126 148.007 234.126C146.665 234.126 145.443 233.816 144.343 233.194C143.25 232.567 142.378 231.611 141.727 230.324C141.083 229.03 140.761 227.392 140.761 225.414C140.761 223.394 141.09 221.702 141.749 220.346C142.408 218.988 143.284 217.972 144.378 217.3C145.479 216.624 146.685 216.287 147.994 216.287C148.995 216.287 149.832 216.457 150.506 216.797C151.18 217.132 151.723 217.55 152.134 218.054C152.553 218.549 152.874 219.039 153.1 219.52H153.285V216.519H158.204V234.555C158.204 236.075 157.832 237.346 157.089 238.369C156.344 239.394 155.313 240.16 153.995 240.672C152.685 241.191 151.176 241.453 149.471 241.453ZM149.576 230.403C150.375 230.403 151.049 230.206 151.6 229.812C152.157 229.407 152.584 228.834 152.879 228.09C153.182 227.338 153.332 226.437 153.332 225.391C153.332 224.345 153.184 223.439 152.89 222.671C152.596 221.896 152.168 221.295 151.611 220.868C151.053 220.443 150.375 220.228 149.576 220.228C148.762 220.228 148.076 220.451 147.518 220.891C146.96 221.326 146.537 221.929 146.25 222.704C145.964 223.48 145.82 224.375 145.82 225.391C145.82 226.422 145.964 227.315 146.25 228.068C146.545 228.812 146.967 229.388 147.518 229.799C148.076 230.203 148.762 230.403 149.576 230.403ZM162.146 234.382V216.519H166.95V219.635H167.136C167.461 218.527 168.008 217.69 168.776 217.125C169.543 216.55 170.427 216.263 171.426 216.263C171.676 216.263 171.943 216.278 172.229 216.309C172.516 216.339 172.768 216.383 172.985 216.437V220.835C172.752 220.763 172.431 220.702 172.02 220.648C171.609 220.594 171.233 220.566 170.892 220.566C170.163 220.566 169.512 220.725 168.938 221.042C168.372 221.354 167.922 221.787 167.59 222.345C167.263 222.905 167.101 223.547 167.101 224.275V234.382H162.146ZM180.128 234.72C178.989 234.72 177.973 234.522 177.082 234.126C176.19 233.722 175.484 233.131 174.965 232.347C174.453 231.554 174.197 230.571 174.197 229.392C174.197 228.4 174.38 227.565 174.744 226.893C175.108 226.217 175.605 225.675 176.232 225.264C176.86 224.854 177.574 224.544 178.372 224.335C179.179 224.125 180.023 223.976 180.907 223.892C181.947 223.784 182.784 223.682 183.419 223.59C184.055 223.488 184.517 223.343 184.803 223.147C185.09 222.954 185.234 222.667 185.234 222.288V222.216C185.234 221.482 185.001 220.912 184.536 220.508C184.078 220.105 183.426 219.903 182.582 219.903C181.691 219.903 180.981 220.101 180.453 220.497C179.926 220.883 179.577 221.372 179.407 221.96L174.826 221.589C175.058 220.505 175.515 219.565 176.197 218.775C176.88 217.976 177.76 217.363 178.838 216.938C179.923 216.504 181.179 216.287 182.605 216.287C183.598 216.287 184.547 216.404 185.454 216.637C186.37 216.869 187.178 217.228 187.884 217.716C188.599 218.205 189.159 218.835 189.57 219.601C189.983 220.361 190.187 221.272 190.187 222.334V234.382H185.489V231.904H185.35C185.062 232.462 184.679 232.953 184.199 233.381C183.718 233.801 183.14 234.131 182.466 234.368C181.792 234.602 181.012 234.72 180.128 234.72ZM181.547 231.298C182.276 231.298 182.92 231.156 183.477 230.869C184.035 230.574 184.474 230.181 184.791 229.684C185.109 229.187 185.268 228.625 185.268 227.999V226.102C185.113 226.202 184.9 226.295 184.629 226.382C184.365 226.458 184.067 226.533 183.734 226.602C183.4 226.663 183.066 226.721 182.733 226.775C182.399 226.822 182.098 226.865 181.826 226.904C181.245 226.991 180.737 227.125 180.302 227.311C179.868 227.496 179.531 227.749 179.291 228.068C179.05 228.376 178.931 228.765 178.931 229.229C178.931 229.904 179.174 230.421 179.663 230.776C180.16 231.125 180.787 231.298 181.547 231.298Z" fill="white"/>
<mask id="mask0_96_668" style="mask-type:luminance" maskUnits="userSpaceOnUse" x="193" y="210" width="66" height="25">
<path d="M193.459 210.112H258.654V234.915H193.459V210.112Z" fill="white"/>
</mask>
<g mask="url(#mask0_96_668)">
<mask id="mask1_96_668" style="mask-type:luminance" maskUnits="userSpaceOnUse" x="193" y="210" width="66" height="25">
<path d="M215.137 218.904H210.043C209.95 218.244 209.761 217.66 209.474 217.149C209.186 216.629 208.82 216.187 208.37 215.82C207.92 215.458 207.4 215.178 206.811 214.984C206.229 214.789 205.596 214.695 204.915 214.695C203.683 214.695 202.608 214.999 201.694 215.613C200.78 216.217 200.071 217.099 199.566 218.263C199.062 219.42 198.809 220.822 198.809 222.472C198.809 224.172 199.062 225.599 199.566 226.753C200.078 227.909 200.792 228.781 201.706 229.37C202.62 229.958 203.678 230.252 204.881 230.252C205.556 230.252 206.18 230.165 206.753 229.986C207.333 229.808 207.851 229.549 208.298 229.206C208.748 228.858 209.121 228.436 209.416 227.939C209.718 227.444 209.928 226.878 210.043 226.241L215.137 226.264C215.006 227.359 214.676 228.412 214.15 229.428C213.629 230.436 212.929 231.34 212.043 232.138C211.168 232.929 210.122 233.556 208.904 234.021C207.694 234.479 206.326 234.706 204.798 234.706C202.674 234.706 200.777 234.226 199.101 233.266C197.436 232.304 196.115 230.912 195.148 229.091C194.186 227.269 193.706 225.064 193.706 222.472C193.706 219.876 194.194 217.668 195.171 215.847C196.149 214.022 197.473 212.636 199.146 211.682C200.822 210.72 202.705 210.24 204.798 210.24C206.18 210.24 207.459 210.433 208.636 210.821C209.823 211.209 210.875 211.775 211.787 212.521C212.703 213.254 213.448 214.158 214.021 215.229C214.602 216.299 214.976 217.524 215.137 218.904ZM222.404 234.382H217.009L225.232 210.565H231.72L239.929 234.382H234.534L228.567 216.007H228.381L222.404 234.382ZM222.067 225.02H234.812V228.949H222.067V225.02ZM238.981 214.719V210.565H258.539V214.719H251.248V234.382H246.272V214.719H238.981Z" fill="white"/>
</mask>
<g mask="url(#mask1_96_668)">
<path d="M193.706 210.24V234.706H258.539V210.24H193.706Z" fill="url(#paint0_linear_96_668)"/>
</g>
</g>
<defs>
<linearGradient id="paint0_linear_96_668" x1="226.123" y1="210.24" x2="226.123" y2="234.706" gradientUnits="userSpaceOnUse">
<stop stop-color="#7ED957"/>
<stop offset="1" stop-color="#0097B2"/>
</linearGradient>
</defs>
</svg>
