<svg width="327" height="327" viewBox="0 0 327 327" fill="none" xmlns="http://www.w3.org/2000/svg">
<g clip-path="url(#clip0_326_890)">
<path d="M47.3112 43.1098C49.8591 43.5 52.2499 43.7854 54.5936 44.2882C59.1291 45.2597 63.7038 46.1317 68.1424 47.4489C77.6899 50.2796 86.8997 54.0217 95.693 58.709C99.6131 60.7987 103.523 62.9564 107.197 65.4415C109.187 66.7901 110.85 67.1541 113.183 66.544C120.277 64.6847 127.488 63.2812 134.567 61.3695C143.748 58.8897 152.842 56.004 161.122 51.225C165.734 48.5618 170.18 45.5058 174.31 42.1435C178.793 38.4931 182.739 34.1907 187.068 30.3361C194.054 24.1116 201.124 17.9683 209.829 14.1372C213.691 12.4377 217.645 11.2436 221.885 10.6806C227.279 9.96311 232.336 10.6937 237.301 12.7048C241.326 14.3336 244.633 16.9758 247.514 20.1391C251.329 24.3342 253.924 29.307 255.71 34.628C257.514 40.0067 258.768 45.5425 259.025 51.2642C259.203 55.166 259.509 59.0599 259.795 62.9564C260.439 71.8258 260.63 80.7867 262.992 89.4099C264.524 94.9928 266.653 100.429 268.787 105.824C272.461 115.117 276.284 124.369 278.709 134.073C279.843 138.59 280.236 143.301 280.796 147.947C281.111 150.555 281.173 153.202 281.202 155.834C281.304 163.889 279.935 171.75 277.887 179.504C276.575 184.461 275.234 189.374 275.326 194.6C275.418 200.011 277.602 204.509 280.888 208.516C286.992 215.958 293.74 222.939 298.493 231.361C301.95 237.491 305.087 243.886 307.588 250.456C309.955 256.683 311.505 263.248 313.042 269.75C313.875 273.249 314.04 276.923 314.312 280.531C314.577 284.126 314.65 287.738 314.713 291.346C314.765 294.334 312.021 296.342 309.059 295.669C295.259 292.53 286.712 283.527 281.179 270.999C278.406 264.709 277.505 258.11 278.227 251.43C278.673 247.256 280.163 243.163 281.451 239.12C282.758 235.019 284.219 231.026 283.986 226.59C283.758 222.164 280.322 217.613 275.97 216.461C273.574 215.827 270.144 217.095 268.759 219.279C265.365 224.626 261.89 229.931 258.713 235.407C253.743 243.959 248.996 252.635 244.125 261.308C246.024 262.981 248.008 264.487 249.703 266.27C256.241 273.16 260.748 281.207 262.853 290.498C263.283 292.412 263.317 294.452 263.259 296.426C263.162 299.969 259.392 303.578 255.781 301.106C256.43 292.404 254.296 284.496 249.197 277.42C245.848 272.772 241.614 269.143 236.46 266.608C230.922 263.882 225.006 262.785 218.929 263.311C208.975 264.175 200.239 268.263 192.218 274.097C185.855 278.724 180.469 284.276 176.585 291.079C174.854 294.109 174.035 297.675 172.919 301.035C172.17 303.284 171.675 305.615 170.971 307.883C170.35 309.881 169.617 310.101 167.129 309.255C165.236 308.613 164.943 307.953 165.495 306.047C166.31 303.227 167.318 300.42 167.687 297.536C167.836 296.389 166.695 294.886 165.804 293.831C161.717 288.994 156.1 287.106 150.129 285.831C143.53 284.42 136.58 284.137 130.555 280.741C127.064 278.774 123.733 276.42 120.662 273.848C117.106 270.868 113.979 267.38 110.541 264.251C105.843 259.975 100.7 256.154 94.2895 255.222C88.8479 254.431 83.2729 254.394 77.7554 254.334C68.9804 254.243 60.8678 252.048 53.8578 246.766C46.8582 241.49 42.1053 234.485 39.7407 225.987C39.4055 224.78 39.5365 223.395 39.6726 222.117C39.8193 220.74 42.0242 220.122 43.0035 221.29C44.3652 222.918 45.7583 224.652 46.5858 226.579C51.4408 237.863 59.5454 245.64 71.5597 248.311C81.2984 250.477 90.2489 247.96 97.2485 240.45C101.14 236.276 103.47 231.233 104.327 225.534C105.969 214.609 102.237 205.329 95.7637 196.818C90.0027 189.243 82.5318 183.82 74.3093 179.258C69.2894 176.472 64.0154 174.327 58.4011 173.324C50.265 171.868 42.6945 173.411 36.0301 178.59C29.8397 183.401 26.2443 189.918 24.1179 197.237C22.7196 202.043 21.8895 207.023 20.9494 211.952C19.5065 219.498 19.8784 227.168 20.2869 234.736C20.719 242.686 22.1383 250.592 23.2774 258.495C24.5945 267.637 27.0744 276.493 30.2613 285.156C30.2744 285.192 30.1958 285.263 30.167 285.305C27.0168 284.475 24.7909 282.621 24.0787 279.376C23.4292 276.425 23.1019 273.406 22.4734 270.449C21.2427 264.68 19.7239 258.967 18.6607 253.172C17.7468 248.191 17.045 243.142 16.7072 238.093C16.2123 230.704 15.8378 223.282 15.9714 215.887C16.0552 211.237 17.0005 206.578 17.8568 201.977C18.9566 196.056 20.9442 190.371 23.6885 185.014C26.6659 179.203 30.2063 173.759 34.925 169.134C37.2059 166.898 39.3139 164.465 41.3197 161.975C44.5773 157.934 44.5852 153.367 42.9433 148.706C40.3299 141.288 37.287 134.003 35.0612 126.471C32.5787 118.071 30.5833 109.508 28.7948 100.927C27.5065 94.7467 26.823 88.4332 26.0295 82.1589C25.5896 78.6735 25.5922 75.1357 25.1916 71.6425C24.5369 65.9364 25.2937 60.4268 27.0953 55.0194C29.1248 48.9336 33.3853 45.278 39.5574 43.9294C42.0242 43.39 44.6009 43.3638 47.3112 43.1098ZM124.498 71.9488C123.275 72.5904 122.042 73.2084 120.835 73.8762C117.8 75.5521 117.412 77.2463 119.29 80.1059C123.791 86.9536 126.671 94.3277 126.119 102.684C125.7 108.992 125.336 115.316 124.514 121.577C123.82 126.859 122.859 132.167 121.348 137.265C120.065 141.597 118.014 145.737 115.964 149.79C113.563 154.535 111.109 159.312 108.103 163.677C104.057 169.553 99.4796 175.068 95.0777 180.698C94.3209 181.664 94.0066 182.46 94.8603 183.49C96.6043 185.587 98.2488 187.774 100.064 189.808C103.376 193.524 105.989 197.683 107.388 202.428C109.404 209.265 111.29 216.16 112.769 223.128C113.353 225.883 112.997 228.944 112.554 231.785C111.696 237.313 108.171 241.359 104.321 245.117C102.677 246.719 102.632 247.659 104.693 248.806C108.299 250.812 111.934 252.794 115.692 254.489C121.036 256.906 126.441 259.213 131.932 261.274C138.563 263.761 145.319 265.906 152.392 266.807C156.545 267.336 160.69 268.043 164.862 268.244C167.763 268.386 170.699 267.773 173.624 267.55C181.288 266.966 188.576 264.738 195.552 261.755C205.945 257.314 216.179 252.48 226.389 247.625C233.3 244.339 239.608 240.015 245.34 234.975C252.683 228.522 258.501 220.852 262.01 211.653C264.304 205.651 266.483 199.589 268.303 193.433C270.4 186.326 271.411 178.991 271.896 171.58C272.283 165.636 273.095 159.726 272.288 153.742C271.393 147.138 270.835 140.486 269.882 133.89C268.947 127.414 266.87 121.239 264.082 115.321C260.531 107.782 255.859 100.94 250.816 94.3382C249.1 92.094 248.425 89.9022 249.48 86.9903C251.889 80.3259 252.819 73.3498 252.756 66.2612C252.751 65.1875 252.544 64.1139 252.379 63.0455C251.609 57.9915 251.211 52.8406 249.962 47.9071C247.566 38.4539 243.541 29.7626 235.858 23.2972C231.71 19.8039 226.863 18.0861 221.539 19.6704C217.572 20.8514 213.689 22.5247 210.017 24.452C203.625 27.8013 197.812 32.0592 192.493 36.9534C185.316 43.555 179.209 51.0207 173.93 59.2354C172.058 62.1525 169.379 64.4176 165.249 63.8232C163.327 63.5483 161.274 63.8651 159.323 64.1846C154.35 64.999 149.362 65.7872 144.457 66.9158C137.871 68.4294 131.356 70.2493 124.498 71.9488ZM55.0073 69.2097C51.6319 68.2487 48.2225 67.5391 44.724 68.4477C40.741 69.4847 38.3005 72.4202 38.5126 76.1753C38.6671 78.9406 39.1489 81.7006 39.6517 84.4319C41.5345 94.6079 45.4807 103.935 51.3177 112.48C53.8447 116.18 56.9713 117.16 60.7762 114.847C66.5791 111.323 71.5178 106.842 75.0844 100.942C79.9001 92.9817 77.161 84.4345 71.544 78.862C67.0242 74.3789 61.4335 71.268 55.0073 69.2097Z" fill="#DCF8FA"/>
<path d="M86.0774 210.862C85.7475 209.898 85.428 209.087 85.2342 208.246C84.5167 205.122 85.9229 203.742 88.9186 204.918C92.8361 206.457 95.2793 209.631 96.8478 213.402C97.3428 214.596 96.9107 215.976 95.6904 216.903C94.3366 217.932 92.8728 217.93 91.7389 216.882C89.7566 215.047 87.9969 212.973 86.0774 210.862Z" fill="#DCF8FA"/>
<path d="M79.9263 218.791C80.2092 220.216 80.4186 221.531 80.5208 222.85C80.547 223.191 80.3244 223.691 80.052 223.887C78.3735 225.102 74.9876 224.325 74.3722 222.397C73.4557 219.53 71.9866 217.16 69.7241 215.17C68.4646 214.06 69.4282 212.687 70.1274 211.779C70.4914 211.305 71.9133 211.155 72.5601 211.47C75.7758 213.023 78.3159 215.353 79.9263 218.791Z" fill="#DCF8FA"/>
<path d="M54.8346 219.415C55.5652 217.425 56.9531 218.05 57.9324 218.689C61.3419 220.907 63.6882 223.971 64.1229 228.122C64.2355 229.219 63.8715 230.588 63.2299 231.471C62.7612 232.112 61.4152 232.513 60.5773 232.364C59.8755 232.241 58.9694 231.246 58.8018 230.494C58.155 227.59 57.1023 224.94 55.3478 222.505C54.8267 221.779 54.9865 220.567 54.8346 219.415Z" fill="#DCF8FA"/>
<path d="M172.173 199.749C167.928 196.698 168.973 192.773 171.966 189.209C176.923 183.309 183.457 180.792 191.03 181.099C193.913 181.214 196.82 181.8 199.09 183.979C201.232 186.04 200.724 188.326 199.69 190.591C198.056 194.166 195.948 197.562 194.683 201.254C193.384 205.051 193.274 209.063 195.463 212.797C197.027 215.466 199.747 216.296 202.397 216.799C205.262 217.341 208.221 217.197 211.099 216.157C213.595 215.256 214.925 213.533 215.336 211.079C215.65 209.21 215.679 207.29 215.818 205.389C216.009 202.781 218.719 201.322 221.83 202.163C224.467 202.873 225.57 204.831 225.101 208.065C224.891 209.5 224.397 210.917 224.378 212.344C224.344 215.144 222.595 216.636 220.623 218.147C218.651 219.658 216.868 221.405 214.922 222.952C214.32 223.432 213.469 223.848 212.725 223.858C207.598 223.937 202.471 223.926 197.343 223.879C196.157 223.869 194.56 223.049 193.866 223.565C191.902 225.024 189.577 226.684 188.718 228.802C186.968 233.126 183.462 234.398 179.657 235.129C174.208 236.174 168.785 235.446 163.707 233.202C160.698 231.874 158.025 229.462 158.491 225.503C158.671 223.971 159.088 222.526 160.719 221.842C162.272 221.193 163.128 222.269 164.147 223.117C166.459 225.047 168.601 227.333 171.623 228.119C177.117 229.551 182.836 228.459 185.384 221.507C186.864 217.469 186.751 213.449 185.884 209.349C185.625 208.113 185.439 206.845 185.389 205.586C185.334 204.106 184.688 203.195 183.268 202.87C180.888 202.325 178.479 201.899 176.119 201.273C174.813 200.927 173.585 200.278 172.173 199.749Z" fill="#DCF8FA"/>
<path d="M236.015 41.2585C237.846 48.986 239.304 56.5958 238.746 64.4412C238.411 69.1652 237.359 73.7164 234.203 77.3589C232.04 79.8597 228.908 80.8653 225.643 80.3547C217.664 79.1029 211.104 74.468 204.065 70.9773C202.169 70.0346 200.184 69.27 198.236 68.432C193.203 66.2716 192.093 62.3961 194.743 57.7637C196.948 53.9091 199.598 50.2875 202.258 46.7183C205.72 42.0702 210.14 38.4356 215.228 35.6781C220.107 33.0359 225.287 31.8104 230.673 33.8477C233.462 34.903 234.648 37.5819 235.633 40.2372C235.743 40.5279 235.884 40.808 236.015 41.2585ZM214.76 43.898C214.44 44.0918 214.034 44.2175 213.812 44.4898C211.094 47.8365 208.328 51.1438 205.738 54.5847C204.099 56.7634 204.269 58.8347 205.919 60.2278C212.165 65.5044 219.02 69.6942 226.921 72.0405C229.063 72.6742 229.72 72.2002 229.796 69.9796C229.998 64.0825 229.194 58.2953 227.803 52.5919C226.994 49.2662 226.056 45.951 224.875 42.7406C224.064 40.5305 222.495 39.8784 220.303 40.74C218.426 41.4784 216.739 42.6987 214.76 43.898Z" fill="white"/>
<path d="M238.144 153.009C236.961 155.376 232.789 155.627 230.561 153.59C226.308 149.701 220.11 151.382 218.091 156.905C217.536 158.421 216.894 159.917 216.163 161.357C215.145 163.357 213.042 163.643 211.251 162.336C207.931 159.914 208.567 155.062 211.175 152.807C214.21 150.178 217.727 148.109 220.827 145.546C225.897 141.35 234.908 144.587 237.511 148.934C238.157 150.018 238.032 151.563 238.144 153.009Z" fill="#DCF8FA"/>
<path d="M118.881 188.347C117.402 186.624 117.292 184.938 118.318 183.044C120.691 178.658 123.246 174.193 128.507 173.167C132.105 172.465 135.96 172.816 139.676 173.07C141.391 173.185 143.158 173.992 144.685 174.869C145.604 175.395 146.361 176.569 146.722 177.613C147.312 179.3 145.808 180.915 143.635 181.002C142.522 181.046 141.249 180.984 140.299 180.489C132.972 176.676 127.968 181.329 125.061 186.302C123.259 189.384 122.128 189.921 118.881 188.347Z" fill="#DCF8FA"/>
<path d="M132.22 231.308C134.603 231.696 136.84 231.997 139.029 232.51C140.417 232.835 141.401 234.058 140.846 235.338C140.333 236.517 139.144 237.905 137.997 238.193C135.85 238.735 133.944 239.151 132.679 241.254C131.574 243.092 129.576 243.831 127.541 244.132C125.022 244.506 122.888 241.56 124.194 239.326C126.122 236.04 128.662 233.225 132.22 231.308Z" fill="#DCF8FA"/>
<path d="M135.352 223.408C133.297 223.764 131.38 224.107 129.447 224.264C128.143 224.369 127.214 224.61 126.25 225.77C125.237 226.995 123.595 227.873 122.06 228.449C120.631 228.986 118.104 225.401 118.871 223.746C119.617 222.14 120.659 220.462 122.026 219.396C124.812 217.228 128.107 216.217 131.734 216.484C135.159 216.738 137.193 220.381 135.352 223.408Z" fill="#DCF8FA"/>
<path d="M235.109 171.622C240.022 168.995 245.173 167.479 250.413 166.254C252.146 165.85 253.516 167.031 253.56 168.843C253.623 171.826 252.995 172.648 250.098 173.612C248.802 174.041 247.359 174.018 246.066 174.447C244.068 175.112 242.195 176.17 240.176 176.718C238.935 177.053 237.34 177.137 236.227 176.629C234.688 175.924 234.172 174.256 234.486 172.51C234.536 172.227 234.816 171.986 235.109 171.622Z" fill="#DCF8FA"/>
<path d="M118.638 207.827C122.044 204.593 126.135 202.865 130.327 201.361C131.6 200.903 132.778 201.424 133.438 202.637C134.263 204.156 133.755 206.745 132.388 207.502C130.597 208.495 128.725 209.361 126.818 210.113C124.163 211.158 121.463 212.111 118.735 212.952C118.051 213.164 116.93 213.054 116.49 212.614C116.124 212.247 116.226 211.058 116.537 210.448C117.017 209.511 117.855 208.759 118.638 207.827Z" fill="#DCF8FA"/>
<path d="M249.925 204.187C246.71 204.957 244.581 204.53 243.633 202.878C242.522 200.948 243.565 198.67 245.746 198.607C249.886 198.486 254.052 198.348 258.051 199.764C258.918 200.073 259.774 200.529 260.505 201.089C261.696 202.001 261.707 202.988 260.646 204.177C258.69 206.371 257.074 207.264 253.594 205.46C252.505 204.897 251.25 204.653 249.925 204.187Z" fill="#DCF8FA"/>
<path d="M247.707 186.496C245.761 187.287 243.999 188.198 241.975 187.274C240.789 186.734 240.435 186.095 241.003 184.72C241.904 182.544 243.952 182.445 245.652 181.908C248.807 180.91 252.049 180.146 255.296 179.48C256.27 179.279 257.901 179.373 258.313 179.97C259.038 181.007 259.127 182.531 259.3 183.875C259.344 184.176 258.684 184.809 258.273 184.885C256.351 185.236 254.4 185.43 252.465 185.715C250.931 185.943 249.401 186.223 247.707 186.496Z" fill="#DCF8FA"/>
</g>
<rect x="0.5" y="0.5" width="326" height="326" rx="4.5" stroke="#8A38F5" stroke-dasharray="10 5"/>
<defs>
<clipPath id="clip0_326_890">
<rect width="327" height="327" rx="5" fill="white"/>
</clipPath>
</defs>
</svg>
