<svg width="31" height="65" viewBox="0 0 31 65" fill="none" xmlns="http://www.w3.org/2000/svg">
<path d="M3.58579 31.0858C2.80474 31.8668 2.80474 33.1332 3.58578 33.9142L16.3137 46.6422C17.0947 47.4232 18.3611 47.4232 19.1421 46.6422C19.9232 45.8611 19.9232 44.5948 19.1421 43.8137L7.82843 32.5L19.1422 21.1863C19.9232 20.4053 19.9232 19.1389 19.1422 18.3579C18.3611 17.5768 17.0948 17.5768 16.3137 18.3579L3.58579 31.0858ZM6 32.5L6 30.5L5 30.5L5 32.5L5 34.5L6 34.5L6 32.5Z" fill="white"/>
<path d="M14.5858 31.0858C13.8047 31.8668 13.8047 33.1332 14.5858 33.9142L27.3137 46.6422C28.0947 47.4232 29.3611 47.4232 30.1421 46.6422C30.9232 45.8611 30.9232 44.5948 30.1421 43.8137L18.8284 32.5L30.1422 21.1863C30.9232 20.4053 30.9232 19.1389 30.1422 18.3579C29.3611 17.5768 28.0948 17.5768 27.3137 18.3579L14.5858 31.0858ZM17 32.5L17 30.5L16 30.5L16 32.5L16 34.5L17 34.5L17 32.5Z" fill="white"/>
</svg>
