<svg width="23" height="23" viewBox="0 0 23 23" fill="none" xmlns="http://www.w3.org/2000/svg">
<path d="M16.2917 1.9165H6.70841C4.06205 1.9165 1.91675 4.06181 1.91675 6.70817V16.2915C1.91675 18.9379 4.06205 21.0832 6.70841 21.0832H16.2917C18.9381 21.0832 21.0834 18.9379 21.0834 16.2915V6.70817C21.0834 4.06181 18.9381 1.9165 16.2917 1.9165Z" stroke="white" stroke-width="2" stroke-linecap="round" stroke-linejoin="round"/>
<path d="M15.3332 10.8961C15.4515 11.6936 15.3153 12.5082 14.9439 13.2239C14.5725 13.9395 13.985 14.5199 13.2648 14.8824C12.5446 15.2449 11.7284 15.3711 10.9323 15.243C10.1363 15.1149 9.4009 14.739 8.83077 14.1689C8.26064 13.5988 7.88479 12.8634 7.7567 12.0673C7.6286 11.2713 7.75478 10.4551 8.11728 9.73491C8.47978 9.0147 9.06014 8.42714 9.77583 8.05578C10.4915 7.68443 11.3061 7.5482 12.1036 7.66647C12.9172 7.78711 13.6704 8.1662 14.2519 8.74776C14.8335 9.32932 15.2126 10.0825 15.3332 10.8961Z" stroke="white" stroke-width="2" stroke-linecap="round" stroke-linejoin="round"/>
<path d="M16.7708 6.229H16.779" stroke="white" stroke-width="2" stroke-linecap="round" stroke-linejoin="round"/>
</svg>
